<svg width="19" height="18" viewBox="0 0 19 18" fill="none" xmlns="http://www.w3.org/2000/svg">
<path d="M5.5 0C2.739 0 0.5 2.239 0.5 5V13C0.5 15.761 2.739 18 5.5 18H13.5C16.261 18 18.5 15.761 18.5 13V5C18.5 2.239 16.261 0 13.5 0H5.5ZM15.5 2C16.052 2 16.5 2.448 16.5 3C16.5 3.552 16.052 4 15.5 4C14.948 4 14.5 3.552 14.5 3C14.5 2.448 14.948 2 15.5 2ZM9.5 4C12.261 4 14.5 6.239 14.5 9C14.5 11.761 12.261 14 9.5 14C6.739 14 4.5 11.761 4.5 9C4.5 6.239 6.739 4 9.5 4ZM9.5 6C8.70435 6 7.94129 6.31607 7.37868 6.87868C6.81607 7.44129 6.5 8.20435 6.5 9C6.5 9.79565 6.81607 10.5587 7.37868 11.1213C7.94129 11.6839 8.70435 12 9.5 12C10.2956 12 11.0587 11.6839 11.6213 11.1213C12.1839 10.5587 12.5 9.79565 12.5 9C12.5 8.20435 12.1839 7.44129 11.6213 6.87868C11.0587 6.31607 10.2956 6 9.5 6Z" fill="white"/>
</svg>
