<svg width="24" height="24" viewBox="0 0 24 24" fill="none" xmlns="http://www.w3.org/2000/svg">
<g clip-path="url(#clip0_1245_2103)">
<path d="M16 21.32V21.9867H16.6667V21.32H16ZM2.66667 21.32H2V21.9867H2.66667V21.32ZM21.3333 21.3333V22H22V21.3333H21.3333ZM12.6667 6.664C12.6665 7.10156 12.5801 7.53481 12.4125 7.939C12.2449 8.34319 11.9993 8.71041 11.6898 9.01969C11.3803 9.32897 11.0129 9.57426 10.6085 9.74154C10.2042 9.90883 9.7709 9.99484 9.33333 9.99467V11.328C11.9107 11.328 14 9.24 14 6.664H12.6667ZM9.33333 9.99467C8.89577 9.99484 8.46245 9.90883 8.05813 9.74154C7.65381 9.57426 7.28639 9.32897 6.97686 9.01969C6.66733 8.71041 6.42175 8.34319 6.25414 7.939C6.08653 7.53481 6.00018 7.10156 6 6.664H4.66667C4.66684 7.27666 4.78769 7.88329 5.0223 8.44924C5.25692 9.0152 5.60071 9.52941 6.03405 9.9625C6.46739 10.3956 6.98179 10.7391 7.54789 10.9734C8.11398 11.2077 8.72067 11.3282 9.33333 11.328V9.99467ZM6 6.664C6.00018 6.22644 6.08653 5.79319 6.25414 5.389C6.42175 4.98481 6.66733 4.61759 6.97686 4.30831C7.28639 3.99903 7.65381 3.75374 8.05813 3.58646C8.46245 3.41917 8.89577 3.33316 9.33333 3.33333V2C8.72067 1.99983 8.11398 2.12032 7.54789 2.35462C6.98179 2.58891 6.46739 2.93241 6.03405 3.3655C5.60071 3.79859 5.25692 4.3128 5.0223 4.87876C4.78769 5.44471 4.66684 6.05134 4.66667 6.664H6ZM9.33333 3.33333C10.2169 3.33333 11.0644 3.68416 11.6894 4.3087C12.3145 4.93325 12.666 5.78041 12.6667 6.664H14C13.9998 6.05134 13.879 5.44471 13.6444 4.87876C13.4097 4.3128 13.066 3.79859 12.6326 3.3655C12.1993 2.93241 11.6849 2.58891 11.1188 2.35462C10.5527 2.12032 9.94599 1.99983 9.33333 2V3.33333ZM16 20.6533H2.66667V21.9867H16V20.6533ZM3.33333 21.32V18.66H2V21.32H3.33333V21.32ZM6.66667 15.3253H12V13.992H6.66667V15.3253ZM15.3333 18.6587V21.32H16.6667V18.6587H15.3333ZM12 15.3253C12.8841 15.3253 13.7319 15.6765 14.357 16.3016C14.9821 16.9268 15.3333 17.7746 15.3333 18.6587H16.6667C16.6667 17.421 16.175 16.234 15.2998 15.3588C14.4247 14.4837 13.2377 13.992 12 13.992V15.3253ZM3.33333 18.6587C3.33333 17.7746 3.68452 16.9268 4.30964 16.3016C4.93477 15.6765 5.78261 15.3253 6.66667 15.3253V13.992C5.42899 13.992 4.242 14.4837 3.36683 15.3588C2.49167 16.234 2 17.421 2 18.6587H3.33333ZM20.6667 19.3333V21.3333H22V19.3333H20.6667ZM21.3333 20.6667H18V22H21.3333V20.6667ZM18 16.6667C18.7072 16.6667 19.3855 16.9476 19.8856 17.4477C20.3857 17.9478 20.6667 18.6261 20.6667 19.3333H22C22 18.2725 21.5786 17.2551 20.8284 16.5049C20.0783 15.7548 19.0609 15.3333 18 15.3333V16.6667ZM17.3333 12.6667C16.8029 12.6667 16.2942 12.456 15.9191 12.0809C15.544 11.7058 15.3333 11.1971 15.3333 10.6667H14C14 11.5507 14.3512 12.3986 14.9763 13.0237C15.6014 13.6488 16.4493 14 17.3333 14V12.6667ZM19.3333 10.6667C19.3333 11.1971 19.1226 11.7058 18.7475 12.0809C18.3725 12.456 17.8638 12.6667 17.3333 12.6667V14C18.2174 14 19.0652 13.6488 19.6904 13.0237C20.3155 12.3986 20.6667 11.5507 20.6667 10.6667H19.3333ZM17.3333 8.66667C17.8638 8.66667 18.3725 8.87738 18.7475 9.25245C19.1226 9.62753 19.3333 10.1362 19.3333 10.6667H20.6667C20.6667 9.78261 20.3155 8.93477 19.6904 8.30964C19.0652 7.68452 18.2174 7.33333 17.3333 7.33333V8.66667ZM17.3333 7.33333C16.4493 7.33333 15.6014 7.68452 14.9763 8.30964C14.3512 8.93477 14 9.78261 14 10.6667H15.3333C15.3333 10.1362 15.544 9.62753 15.9191 9.25245C16.2942 8.87738 16.8029 8.66667 17.3333 8.66667V7.33333Z" fill="#2D2D2D"/>
</g>
<defs>
<clipPath id="clip0_1245_2103">
<rect width="20" height="20" fill="white" transform="translate(2 2)"/>
</clipPath>
</defs>
</svg>
