<svg width="24" height="24" viewBox="0 0 24 24" fill="none" xmlns="http://www.w3.org/2000/svg">
<path d="M1.6 2.83333C1.6 2.70447 1.70447 2.6 1.83333 2.6H10.1667C10.2955 2.6 10.4 2.70447 10.4 2.83333V12.8333C10.4 12.9622 10.2955 13.0667 10.1667 13.0667H1.83333C1.70447 13.0667 1.6 12.9622 1.6 12.8333V2.83333ZM22.0667 21.1667C22.0667 21.2955 21.9622 21.4 21.8333 21.4L13.5 21.4C13.3711 21.4 13.2667 21.2955 13.2667 21.1667V11.1667C13.2667 11.0378 13.3711 10.9333 13.5 10.9333L21.8333 10.9333C21.9622 10.9333 22.0667 11.0378 22.0667 11.1667L22.0667 21.1667ZM1.6 16.1667C1.6 16.0378 1.70447 15.9333 1.83333 15.9333H10.1667C10.2955 15.9333 10.4 16.0378 10.4 16.1667V21.1667C10.4 21.2955 10.2955 21.4 10.1667 21.4H1.83333C1.70447 21.4 1.6 21.2955 1.6 21.1667V16.1667ZM22.0667 7.83333C22.0667 7.9622 21.9622 8.06667 21.8333 8.06667L13.5 8.06667C13.3711 8.06667 13.2667 7.9622 13.2667 7.83333V2.83333C13.2667 2.70447 13.3711 2.6 13.5 2.6L21.8333 2.6C21.9622 2.6 22.0667 2.70447 22.0667 2.83333V7.83333Z" stroke="#2D2D2D" stroke-width="1.2" stroke-linejoin="round"/>
</svg>
