<svg width="24" height="24" viewBox="0 0 24 24" fill="none" xmlns="http://www.w3.org/2000/svg">
<path d="M20.25 12.5701V11.4226L21.69 10.1626C21.9555 9.9286 22.1296 9.60833 22.1818 9.25836C22.2339 8.90839 22.1607 8.55125 21.975 8.25006L20.205 5.25006C20.0735 5.02226 19.8844 4.83305 19.6566 4.70141C19.4289 4.56977 19.1705 4.50033 18.9075 4.50006C18.7445 4.49881 18.5824 4.52414 18.4275 4.57506L16.605 5.19006C16.2903 4.98097 15.9621 4.79305 15.6225 4.62756L15.24 2.73756C15.1714 2.39226 14.9836 2.08209 14.7093 1.86134C14.4351 1.64058 14.092 1.52332 13.74 1.53006H10.23C9.87803 1.52332 9.53489 1.64058 9.26067 1.86134C8.98644 2.08209 8.79859 2.39226 8.73001 2.73756L8.34751 4.62756C8.00546 4.79301 7.67473 4.98092 7.35751 5.19006L5.57251 4.54506C5.41598 4.50428 5.25389 4.48908 5.09251 4.50006C4.82946 4.50033 4.57111 4.56977 4.34338 4.70141C4.11564 4.83305 3.92653 5.02226 3.79501 5.25006L2.02501 8.25006C1.84995 8.5508 1.7849 8.90305 1.84099 9.24648C1.89709 9.58991 2.07085 9.90316 2.33251 10.1326L3.75001 11.4301V12.5776L2.33251 13.8376C2.06346 14.0686 1.88495 14.3874 1.82866 14.7375C1.77236 15.0876 1.84193 15.4464 2.02501 15.7501L3.79501 18.7501C3.92653 18.9779 4.11564 19.1671 4.34338 19.2987C4.57111 19.4304 4.82946 19.4998 5.09251 19.5001C5.25552 19.5013 5.41764 19.476 5.57251 19.4251L7.39501 18.8101C7.70966 19.0192 8.03789 19.2071 8.37751 19.3726L8.76001 21.2626C8.82859 21.6079 9.01644 21.918 9.29067 22.1388C9.56489 22.3595 9.90803 22.4768 10.26 22.4701H13.8C14.152 22.4768 14.4951 22.3595 14.7693 22.1388C15.0436 21.918 15.2314 21.6079 15.3 21.2626L15.6825 19.3726C16.0246 19.2071 16.3553 19.0192 16.6725 18.8101L18.4875 19.4251C18.6424 19.476 18.8045 19.5013 18.9675 19.5001C19.2306 19.4998 19.4889 19.4304 19.7166 19.2987C19.9444 19.1671 20.1335 18.9779 20.265 18.7501L21.975 15.7501C22.1501 15.4493 22.2151 15.0971 22.159 14.7536C22.1029 14.4102 21.9292 14.097 21.6675 13.8676L20.25 12.5701ZM18.9075 18.0001L16.335 17.1301C15.7328 17.6401 15.0446 18.0389 14.3025 18.3076L13.77 21.0001H10.23L9.69751 18.3376C8.96132 18.0612 8.27679 17.6632 7.67251 17.1601L5.09251 18.0001L3.32251 15.0001L5.36251 13.2001C5.22383 12.4237 5.22383 11.6289 5.36251 10.8526L3.32251 9.00006L5.09251 6.00006L7.66501 6.87006C8.26721 6.35998 8.95546 5.96125 9.69751 5.69256L10.23 3.00006H13.77L14.3025 5.66256C15.0387 5.93888 15.7232 6.33692 16.3275 6.84006L18.9075 6.00006L20.6775 9.00006L18.6375 10.8001C18.7762 11.5764 18.7762 12.3712 18.6375 13.1476L20.6775 15.0001L18.9075 18.0001Z" fill="#2D2D2D"/>
<path d="M12 16.5C11.11 16.5 10.24 16.2361 9.49994 15.7416C8.75991 15.2471 8.18314 14.5443 7.84254 13.7221C7.50195 12.8998 7.41283 11.995 7.58647 11.1221C7.7601 10.2492 8.18868 9.44736 8.81802 8.81802C9.44736 8.18868 10.2492 7.7601 11.1221 7.58647C11.995 7.41283 12.8998 7.50195 13.7221 7.84254C14.5443 8.18314 15.2471 8.75991 15.7416 9.49994C16.2361 10.24 16.5 11.11 16.5 12C16.506 12.5926 16.3937 13.1805 16.1697 13.7292C15.9457 14.2779 15.6145 14.7763 15.1954 15.1954C14.7763 15.6145 14.2779 15.9457 13.7292 16.1697C13.1805 16.3937 12.5926 16.506 12 16.5ZM12 9C11.6035 8.99077 11.2093 9.06205 10.8411 9.20954C10.473 9.35704 10.1386 9.57768 9.85812 9.85812C9.57768 10.1386 9.35704 10.473 9.20954 10.8411C9.06205 11.2093 8.99077 11.6035 9 12C8.99077 12.3965 9.06205 12.7907 9.20954 13.1589C9.35704 13.527 9.57768 13.8615 9.85812 14.1419C10.1386 14.4223 10.473 14.643 10.8411 14.7905C11.2093 14.938 11.6035 15.0092 12 15C12.3965 15.0092 12.7907 14.938 13.1589 14.7905C13.527 14.643 13.8615 14.4223 14.1419 14.1419C14.4223 13.8615 14.643 13.527 14.7905 13.1589C14.938 12.7907 15.0092 12.3965 15 12C15.0092 11.6035 14.938 11.2093 14.7905 10.8411C14.643 10.473 14.4223 10.1386 14.1419 9.85812C13.8615 9.57768 13.527 9.35704 13.1589 9.20954C12.7907 9.06205 12.3965 8.99077 12 9Z" fill="#2D2D2D"/>
</svg>
