<svg width="24" height="26" viewBox="0 0 24 26" fill="none" xmlns="http://www.w3.org/2000/svg">
<path fill-rule="evenodd" clip-rule="evenodd" d="M3.90531 1.90531C4.48496 1.32565 5.27115 1 6.09091 1H18.8182C19.6379 1 20.4241 1.32565 21.0038 1.90531C21.5834 2.48496 21.9091 3.27115 21.9091 4.09091V5.36364C21.9091 5.66488 21.6649 5.90909 21.3636 5.90909C21.0624 5.90909 20.8182 5.66488 20.8182 5.36364V4.09091C20.8182 3.56048 20.6075 3.05177 20.2324 2.6767C19.8573 2.30162 19.3486 2.09091 18.8182 2.09091H6.09091C5.56048 2.09091 5.05177 2.30162 4.6767 2.6767C4.30162 3.05177 4.09091 3.56048 4.09091 4.09091V21.9091C4.09091 22.4395 4.30162 22.9482 4.6767 23.3233C5.05177 23.6984 5.56048 23.9091 6.09091 23.9091H18.8182C19.3486 23.9091 19.8573 23.6984 20.2324 23.3233C20.6075 22.9482 20.8182 22.4395 20.8182 21.9091V20.6364C20.8182 20.3351 21.0624 20.0909 21.3636 20.0909C21.6649 20.0909 21.9091 20.3351 21.9091 20.6364V21.9091C21.9091 22.7289 21.5834 23.515 21.0038 24.0947C20.4241 24.6744 19.6379 25 18.8182 25H6.09091C5.27115 25 4.48496 24.6744 3.90531 24.0947C3.32565 23.515 3 22.7289 3 21.9091V4.09091C3 3.27115 3.32565 2.48496 3.90531 1.90531ZM17.1598 8.79612C17.3728 8.58311 17.7181 8.58311 17.9311 8.79612L21.7493 12.6143C21.7996 12.6645 21.8401 12.7245 21.8677 12.7912C21.891 12.8473 21.9051 12.9082 21.9084 12.9719C21.9089 12.9812 21.9091 12.9906 21.9091 13C21.9091 13.074 21.8944 13.1445 21.8677 13.2088C21.8411 13.2731 21.8016 13.3334 21.7493 13.3857L17.9311 17.2039C17.7181 17.4169 17.3728 17.4169 17.1598 17.2039C16.9467 16.9909 16.9467 16.6455 17.1598 16.4325L20.0468 13.5455H12.4545C12.1533 13.5455 11.9091 13.3012 11.9091 13C11.9091 12.6988 12.1533 12.4545 12.4545 12.4545H20.0468L17.1598 9.56751C16.9467 9.3545 16.9467 9.00914 17.1598 8.79612Z" fill="#2D2D2D" stroke="#2D2D2D" stroke-width="0.4" stroke-linecap="round" stroke-linejoin="round"/>
</svg>
