<svg width="24" height="24" viewBox="0 0 24 24" fill="none" xmlns="http://www.w3.org/2000/svg">
<path d="M17.0007 8.66665C17.4427 8.66665 17.8667 8.49106 18.1792 8.1785C18.4918 7.86595 18.6674 7.44203 18.6674 7.00001C18.6674 6.55799 18.4918 6.13407 18.1792 5.82152C17.8667 5.50896 17.4427 5.33337 17.0007 5.33337C16.5587 5.33337 16.1348 5.50896 15.8222 5.82152C15.5097 6.13407 15.3341 6.55799 15.3341 7.00001C15.3341 7.44203 15.5097 7.86595 15.8222 8.1785C16.1348 8.49106 16.5587 8.66665 17.0007 8.66665ZM2.97926 15.5599C2.66895 15.2519 2.42266 14.8855 2.2546 14.4819C2.08653 14.0783 2 13.6455 2 13.2083C2 12.7711 2.08653 12.3382 2.2546 11.9346C2.42266 11.531 2.66895 11.1646 2.97926 10.8566L10.8791 2.99673C11.504 2.37597 12.3483 2.02629 13.2291 2.02341L18.644 2.00008C19.0851 1.99699 19.5225 2.08148 19.9307 2.24865C20.3389 2.41582 20.7098 2.66235 21.0221 2.97396C21.3343 3.28556 21.5815 3.65603 21.7495 4.0639C21.9175 4.47177 22.0029 4.90893 22.0007 5.35003L21.9607 10.9533C21.9539 11.8283 21.6017 12.6651 20.9807 13.2816L13.1974 21.0265C12.5693 21.6501 11.7201 22 10.835 22C9.94987 22 9.10066 21.6501 8.47251 21.0265L2.97926 15.5599ZM4.16091 12.0333C4.00601 12.1872 3.88307 12.3703 3.79919 12.572C3.7153 12.7736 3.67212 12.9899 3.67212 13.2083C3.67212 13.4267 3.7153 13.6429 3.79919 13.8446C3.88307 14.0462 4.00601 14.2293 4.16091 14.3832L9.65416 19.8498C10.3075 20.4998 11.3641 20.4998 12.0175 19.8498L19.8007 12.1049C20.1104 11.7966 20.2859 11.3786 20.289 10.9416L20.329 5.3367C20.3299 5.11643 20.2871 4.89817 20.2031 4.69454C20.1191 4.4909 19.9956 4.30594 19.8397 4.15034C19.6838 3.99474 19.4986 3.87159 19.2948 3.788C19.091 3.70442 18.8726 3.66207 18.6524 3.66339L13.2358 3.68506C12.7954 3.6865 12.3732 3.86133 12.0608 4.17172L4.16091 12.0333Z" fill="#2D2D2D"/>
</svg>
