<svg version="1.2" xmlns="http://www.w3.org/2000/svg" viewBox="0 0 1000 857" width="1000" height="857">
	<title>Untitled-svg</title>
	<style>
		.s0 { fill: #ffffff } 
		.s1 { fill: #2d2d2d } 
	</style>
	<path id="Layer" class="s0" d="m0 1h1000v1000h-1000z"/>
	<g id="443256">
		<path id="Layer" fill-rule="evenodd" class="s1" d="m190.4 260c24.4 0 44.2 19.8 44.2 44.2v464.4h176.9v-132.7c0-24.4 19.8-44.2 44.3-44.2h88.4c24.5 0 44.3 19.8 44.3 44.2v132.7h176.9v-442.3c0-24.4 19.8-44.2 44.2-44.2 24.5 0 44.3 19.8 44.3 44.2v486.6c0 24.4-19.8 44.2-44.3 44.2h-619.2c-24.5 0-44.3-19.8-44.3-44.2v-508.7c0-24.4 19.8-44.2 44.3-44.2z"/>
	</g>
	<g id="275197">
		<path id="Layer" fill-rule="evenodd" class="s1" d="m468.8 12c18-14 43.2-14 61.2 0l449 349.2c21.7 16.9 25.7 48.3 8.7 70-16.9 21.8-48.2 25.7-70 8.8l-418.3-325.4-418.4 325.4c-21.7 16.9-53.1 13-70-8.8-16.9-21.7-13-53.1 8.8-70z"/>
	</g>
</svg>