<?xml version="1.0" encoding="UTF-8"?>
<svg xmlns="http://www.w3.org/2000/svg" xmlns:xlink="http://www.w3.org/1999/xlink" width="21px" height="21px" viewBox="0 0 21 21" version="1.1">
<g id="surface1">
<rect x="0" y="0" width="21" height="21" style="fill:rgb(100%,100%,100%);fill-opacity:1;stroke:none;"/>
<path style=" stroke:none;fill-rule:nonzero;fill:rgb(17.647059%,17.647059%,17.647059%);fill-opacity:1;" d="M 10.476562 0.078125 C 8.410156 0.078125 6.390625 0.691406 4.675781 1.839844 C 2.957031 2.988281 1.617188 4.617188 0.828125 6.527344 C 0.0390625 8.433594 -0.167969 10.535156 0.234375 12.558594 C 0.636719 14.585938 1.632812 16.445312 3.09375 17.90625 C 4.554688 19.367188 6.414062 20.363281 8.441406 20.765625 C 10.464844 21.167969 12.566406 20.960938 14.472656 20.171875 C 16.382812 19.382812 18.011719 18.042969 19.160156 16.324219 C 20.308594 14.609375 20.921875 12.589844 20.921875 10.523438 C 20.917969 7.753906 19.816406 5.097656 17.859375 3.140625 C 15.902344 1.183594 13.246094 0.0820312 10.476562 0.078125 Z M 6 18.265625 L 6 17.238281 C 6 16.644531 6.238281 16.074219 6.65625 15.65625 C 7.078125 15.234375 7.644531 15 8.238281 15 L 12.714844 15 C 13.308594 15 13.878906 15.234375 14.296875 15.65625 C 14.714844 16.074219 14.953125 16.644531 14.953125 17.238281 L 14.953125 18.265625 C 13.59375 19.058594 12.050781 19.476562 10.476562 19.476562 C 8.90625 19.476562 7.359375 19.058594 6 18.265625 Z M 16.4375 17.179688 C 16.425781 16.203125 16.027344 15.269531 15.328125 14.582031 C 14.632812 13.894531 13.695312 13.507812 12.714844 13.507812 L 8.238281 13.507812 C 7.261719 13.507812 6.320312 13.894531 5.625 14.582031 C 4.929688 15.269531 4.53125 16.203125 4.515625 17.179688 C 3.164062 15.972656 2.207031 14.382812 1.78125 12.621094 C 1.351562 10.859375 1.46875 9.007812 2.113281 7.3125 C 2.761719 5.617188 3.90625 4.160156 5.398438 3.132812 C 6.894531 2.101562 8.664062 1.550781 10.476562 1.550781 C 12.292969 1.550781 14.0625 2.101562 15.554688 3.132812 C 17.050781 4.160156 18.195312 5.617188 18.839844 7.3125 C 19.488281 9.007812 19.605469 10.859375 19.175781 12.621094 C 18.746094 14.382812 17.792969 15.972656 16.441406 17.179688 Z M 16.4375 17.179688 "/>
<path style=" stroke:none;fill-rule:nonzero;fill:rgb(17.647059%,17.647059%,17.647059%);fill-opacity:1;" d="M 10.5 10.421875 C 10.484375 10.421875 10.46875 10.425781 10.457031 10.433594 C 10.441406 10.441406 10.433594 10.457031 10.425781 10.46875 C 10.421875 10.484375 10.417969 10.5 10.421875 10.515625 C 10.425781 10.53125 10.433594 10.542969 10.445312 10.554688 C 10.457031 10.566406 10.46875 10.574219 10.484375 10.578125 C 10.5 10.582031 10.515625 10.578125 10.53125 10.574219 C 10.542969 10.566406 10.558594 10.558594 10.566406 10.542969 C 10.574219 10.53125 10.578125 10.515625 10.578125 10.5 C 10.578125 10.480469 10.570312 10.460938 10.554688 10.445312 C 10.539062 10.429688 10.519531 10.421875 10.5 10.421875 Z M 10.5 10.546875 C 10.492188 10.546875 10.480469 10.542969 10.472656 10.539062 C 10.464844 10.535156 10.460938 10.527344 10.457031 10.519531 C 10.453125 10.507812 10.453125 10.5 10.453125 10.492188 C 10.457031 10.480469 10.460938 10.472656 10.464844 10.464844 C 10.472656 10.460938 10.480469 10.457031 10.492188 10.453125 C 10.5 10.453125 10.507812 10.453125 10.519531 10.457031 C 10.527344 10.460938 10.535156 10.464844 10.539062 10.472656 C 10.542969 10.480469 10.546875 10.492188 10.546875 10.5 C 10.546875 10.511719 10.542969 10.523438 10.535156 10.535156 C 10.523438 10.542969 10.511719 10.546875 10.5 10.546875 Z M 10.5 10.546875 "/>
<path style=" stroke:none;fill-rule:nonzero;fill:rgb(17.647059%,17.647059%,17.647059%);fill-opacity:1;" d="M 10.5 3.683594 C 9.664062 3.683594 8.84375 3.929688 8.148438 4.398438 C 7.449219 4.863281 6.90625 5.523438 6.585938 6.296875 C 6.265625 7.070312 6.183594 7.921875 6.34375 8.746094 C 6.507812 9.566406 6.914062 10.320312 7.503906 10.914062 C 8.097656 11.507812 8.851562 11.910156 9.671875 12.074219 C 10.496094 12.238281 11.347656 12.152344 12.121094 11.832031 C 12.894531 11.511719 13.554688 10.96875 14.023438 10.273438 C 14.488281 9.574219 14.734375 8.757812 14.734375 7.917969 C 14.734375 6.796875 14.289062 5.71875 13.496094 4.921875 C 12.699219 4.128906 11.625 3.683594 10.5 3.683594 Z M 10.5 10.460938 C 9.996094 10.460938 9.507812 10.3125 9.089844 10.03125 C 8.671875 9.753906 8.34375 9.355469 8.152344 8.890625 C 7.960938 8.425781 7.910156 7.914062 8.007812 7.421875 C 8.105469 6.929688 8.347656 6.476562 8.703125 6.121094 C 9.058594 5.765625 9.511719 5.523438 10.003906 5.425781 C 10.496094 5.328125 11.007812 5.378906 11.472656 5.570312 C 11.9375 5.761719 12.332031 6.089844 12.613281 6.507812 C 12.890625 6.925781 13.042969 7.417969 13.042969 7.917969 C 13.039062 8.59375 12.773438 9.238281 12.296875 9.714844 C 11.820312 10.191406 11.175781 10.460938 10.5 10.460938 Z M 10.5 10.460938 "/>
</g>
</svg>
