<svg width="25" height="24" viewBox="0 0 25 24" fill="none" xmlns="http://www.w3.org/2000/svg">
<g clip-path="url(#clip0_308_556)">
<path fill-rule="evenodd" clip-rule="evenodd" d="M7.5 3C5.29086 3 3.5 4.79086 3.5 7V17C3.5 19.2091 5.29086 21 7.5 21H17.5C19.7091 21 21.5 19.2091 21.5 17V7C21.5 4.79086 19.7091 3 17.5 3H7.5ZM6.5 12C6.5 11.3 7.1 10.7 7.8 10.7C8.5 10.7 9.1 11.2 9.1 11.9V16.5C9.1 17.2 8.5 17.8 7.8 17.8C7.1 17.8 6.5 17.2 6.5 16.5V12ZM7.9 7C7 7 6.5 7.5 6.5 8.2C6.5 8.9 7 9.4 7.8 9.4C8.7 9.4 9.2 8.9 9.2 8.2C9.2 7.5 8.6 7 7.9 7ZM13.7 12C13.7 12 14 10.7 15.9 10.7C17.1 10.7 18.1 11.7 18.1 13.9V16.5C18.1 17.2 17.6 17.7 16.9 17.7C16.2 17.7 15.7 17.2 15.7 16.5V13.9C15.7 12.8 15.1 12.7 14.8 12.7C14.5 12.7 13.7 12.8 13.7 13.9V16.5C13.7 17.2 13.2 17.7 12.5 17.7H12.3C11.6 17.7 11.1 17.2 11.1 16.5V12C11.1 11.3 11.7 10.7 12.4 10.7C13.1 10.7 13.7 11.3 13.7 12Z" fill="white"/>
</g>
<defs>
<clipPath id="clip0_308_556">
<rect width="24" height="24" fill="white" transform="translate(0.5)"/>
</clipPath>
</defs>
</svg>
