<svg width="103" height="24" viewBox="0 0 103 24" fill="none" xmlns="http://www.w3.org/2000/svg">
<path d="M18.4189 15.7973L18.438 23.8862L0.0566154 23.9321L0.0550841 23.4045C1.06039 22.7221 1.56177 21.3375 1.55692 19.2508L1.523 4.90123C1.5179 2.79031 1.00964 1.40827 0.00127442 0.753792L0 0.226714L9.0355 0.204524L9.03677 0.73134C8.03198 1.46074 7.53009 2.84618 7.53494 4.88609L7.56911 19.2707C7.57217 20.5133 7.82006 21.3986 8.31506 21.9243C8.80802 22.4504 9.62792 22.7127 10.7732 22.7099H10.8758C12.6627 22.7054 14.15 22.0682 15.3377 20.7994C16.5268 19.5302 17.3814 17.863 17.9027 15.7986L18.4189 15.7973Z" fill="#2D2D2D"/>
<path d="M39.1748 17.5034L39.1898 23.8346L21.5299 23.8785L21.5287 23.3504C22.5334 22.6687 23.0353 21.2833 23.0302 19.1964L22.9963 4.84732C22.9912 2.75937 22.483 1.37759 21.4748 0.700142L21.4736 0.172803L38.3092 0.131295L38.3243 6.46144L37.8081 6.46275C37.1624 4.94026 36.2491 3.70597 35.0676 2.75911C33.8861 1.81277 32.5054 1.3413 30.9237 1.34496L29.0001 1.34992L29.0236 11.3385L30.5348 11.1937C31.5429 11.0978 32.3549 10.7381 32.9726 10.1152C33.59 9.49233 34.1483 8.66452 34.6509 7.63203L35.1653 7.63073L35.1849 15.8961L34.6703 15.8974C34.1404 14.8895 33.5714 14.0765 32.9624 13.457C32.3552 12.8365 31.5463 12.4809 30.5379 12.3901L29.0258 12.253L29.0424 19.2165C29.0452 20.4362 29.2704 21.3149 29.7182 21.8529C30.1673 22.3915 30.8602 22.6596 31.8 22.657H31.8686C33.4258 22.6533 34.7879 22.1748 35.9536 21.2222C37.119 20.2699 38.0218 19.0304 38.6584 17.5047L39.1748 17.5034Z" fill="#2D2D2D"/>
<path d="M75.917 19.0642C75.9218 21.0808 76.4301 22.4629 77.4385 23.2105L77.4398 23.7379L68.4045 23.7603L68.4032 23.233C69.4083 22.5506 69.9097 21.1659 69.9051 19.079L69.8709 4.72943C69.8655 2.64201 69.3575 1.25996 68.3494 0.582256L68.3481 0.0554403L77.3834 0.0329891L77.3847 0.559805C76.3796 1.2892 75.8782 2.67438 75.8828 4.71429L75.917 19.0642Z" fill="#2D2D2D"/>
<path d="M95.7693 22.8662C94.6796 22.107 93.5248 20.884 92.3073 19.1989C92.0314 18.8248 91.7435 18.3914 91.4443 17.8998C91.1467 17.408 90.8932 16.9866 90.6854 16.6353C90.4796 16.2836 90.1799 15.7403 89.789 15.0026C89.398 14.2651 89.0986 13.7205 88.8926 13.3689L88.8913 12.876C91.9353 12.002 93.4532 9.82894 93.4447 6.35895C93.4368 2.91141 91.9893 1.19208 89.103 1.19912L88.3471 1.20095L88.3897 19.0326C88.3945 21.073 88.9025 22.4548 89.9109 23.179L89.9121 23.7071L80.8769 23.7295L80.8759 23.2014C81.8809 22.5433 82.3826 21.1578 82.3775 19.048L82.3433 4.69783C82.3384 2.61041 81.8302 1.22862 80.8221 0.551177L80.8208 0.0240996L90.3725 8.22145e-05C96.7397 -0.0153202 99.9292 2.13345 99.9394 6.44744C99.9433 8.1827 99.4189 9.52037 98.3672 10.4615C97.317 11.4016 96.058 12.0268 94.5929 12.3343L96.0404 14.4416C98.684 18.257 101.005 20.9469 103 22.5135L102.865 23.0422C101.836 23.6771 100.714 23.9968 99.4988 24C98.1025 24.0031 96.8587 23.6251 95.7693 22.8662Z" fill="#2D2D2D"/>
<path d="M49.8869 16.0276L49.27 15.0629L47.2838 17.8701C45.2074 20.7833 43.1953 22.5927 41.2505 23.3012L41.2518 23.8293L49.0506 23.81L49.0494 23.2821C47.7184 21.8554 47.7595 19.897 49.1738 17.4086L49.8869 16.0276Z" fill="#2D2D2D"/>
<path d="M61.1657 17.9416L56.0275 9.96995L58.5607 6.02457C60.3864 3.20618 62.3873 1.39626 64.5611 0.592986L64.5603 0.0656474L56.7597 0.0854879L56.7609 0.612043C57.3814 1.26782 57.6979 2.16378 57.7119 3.30121C57.7277 4.43786 57.4941 5.44084 57.0155 6.30965L55.5108 9.19774L53.4066 5.93216C51.9581 3.63745 51.84 1.86773 53.0504 0.62118L53.0491 0.0948859L41.5396 0.123342L41.5409 0.650419C42.0675 0.883805 42.6306 1.31586 43.2266 1.9471C43.8243 2.57938 44.3127 3.16467 44.6917 3.70298C45.0712 4.24154 45.5713 4.99052 46.1925 5.94991L53.847 17.8187C54.5828 18.9425 55.0038 19.9912 55.1087 20.9639C55.2153 21.9366 54.9467 22.7049 54.3079 23.2691L54.3091 23.7972L66.1624 23.7672L66.1611 23.2398C64.6476 22.5397 62.982 20.7744 61.1657 17.9416Z" fill="#2D2D2D"/>
</svg>
