<svg width="24" height="24" viewBox="0 0 24 24" fill="none" xmlns="http://www.w3.org/2000/svg">
<g clip-path="url(#clip0_2_1982)">
<path d="M11.9027 5.9809C11.3094 5.9809 10.7293 6.15684 10.236 6.48649C9.74265 6.81613 9.35814 7.28467 9.13107 7.83284C8.90401 8.38102 8.8446 8.98422 8.96036 9.56616C9.07611 10.1481 9.36183 10.6827 9.78139 11.1022C10.2009 11.5218 10.7355 11.8075 11.3174 11.9232C11.8994 12.039 12.5026 11.9796 13.0508 11.7525C13.5989 11.5255 14.0675 11.1409 14.3971 10.6476C14.7268 10.1543 14.9027 9.57424 14.9027 8.98089C14.9018 8.18552 14.5854 7.42299 14.023 6.86057C13.4606 6.29816 12.6981 5.9818 11.9027 5.9809ZM11.9027 10.4809C11.606 10.4809 11.316 10.3929 11.0694 10.2281C10.8227 10.0633 10.6304 9.82901 10.5169 9.55492C10.4034 9.28083 10.3737 8.97923 10.4315 8.68826C10.4894 8.39729 10.6323 8.13001 10.8421 7.92023C11.0518 7.71045 11.3191 7.56759 11.6101 7.50972C11.901 7.45184 12.2026 7.48154 12.4767 7.59508C12.7508 7.70861 12.9851 7.90086 13.1499 8.14754C13.3147 8.39421 13.4027 8.68422 13.4027 8.98089C13.4023 9.37858 13.2441 9.75984 12.9629 10.041C12.6817 10.3222 12.3004 10.4804 11.9027 10.4809Z" fill="#2D2D2D"/>
<path d="M17.6675 3.21164C16.2421 1.78666 14.3395 0.940164 12.3267 0.835526C10.314 0.730889 8.33378 1.37553 6.76836 2.64503C5.20295 3.91453 4.16326 5.71889 3.84997 7.70987C3.53668 9.70085 3.972 11.7373 5.0719 13.4262L10.7394 22.1268C10.8655 22.3204 11.038 22.4795 11.2411 22.5896C11.4443 22.6997 11.6717 22.7574 11.9027 22.7574C12.1338 22.7574 12.3612 22.6997 12.5643 22.5896C12.7675 22.4795 12.9399 22.3204 13.0661 22.1268L18.7338 13.4262C19.7543 11.8595 20.2054 9.98961 20.0112 8.12992C19.8171 6.27023 18.9896 4.53379 17.6675 3.21164ZM17.4769 12.6074L11.9028 21.1645L6.32852 12.6074C4.62227 9.98812 4.98823 6.48281 7.19866 4.27228C7.81641 3.65452 8.54978 3.16448 9.35691 2.83015C10.164 2.49582 11.0291 2.32374 11.9028 2.32374C12.7764 2.32374 13.6415 2.49582 14.4486 2.83015C15.2557 3.16448 15.9891 3.65452 16.6068 4.27228C18.8173 6.48281 19.1832 9.98812 17.4769 12.6074Z" fill="#2D2D2D"/>
</g>
<defs>
<clipPath id="clip0_2_1982">
<rect width="24" height="24" fill="white"/>
</clipPath>
</defs>
</svg>
