<svg width="24" height="25" viewBox="0 0 24 25" fill="none" xmlns="http://www.w3.org/2000/svg">
<path d="M12 6.5C11.2583 6.5 10.5333 6.71993 9.91661 7.13199C9.29993 7.54404 8.81928 8.12971 8.53545 8.81494C8.25162 9.50016 8.17736 10.2542 8.32206 10.9816C8.46675 11.709 8.8239 12.3772 9.34835 12.9017C9.8728 13.4261 10.541 13.7833 11.2684 13.9279C11.9958 14.0726 12.7498 13.9984 13.4351 13.7145C14.1203 13.4307 14.706 12.9501 15.118 12.3334C15.5301 11.7167 15.75 10.9917 15.75 10.25C15.75 9.25544 15.3549 8.30161 14.6517 7.59835C13.9484 6.89509 12.9946 6.5 12 6.5ZM12 12.5C11.555 12.5 11.12 12.368 10.75 12.1208C10.38 11.8736 10.0916 11.5222 9.92127 11.111C9.75098 10.6999 9.70642 10.2475 9.79323 9.81105C9.88005 9.37459 10.0943 8.97368 10.409 8.65901C10.7237 8.34434 11.1246 8.13005 11.561 8.04323C11.9975 7.95642 12.4499 8.00097 12.861 8.17127C13.2722 8.34157 13.6236 8.62996 13.8708 8.99997C14.118 9.36998 14.25 9.80499 14.25 10.25C14.2494 10.8466 14.0122 11.4185 13.5903 11.8403C13.1685 12.2622 12.5966 12.4994 12 12.5Z" fill="#2D2D2D"/>
<path d="M12 2C9.9233 2 7.89323 2.61581 6.16652 3.76957C4.4398 4.92332 3.09399 6.5632 2.29927 8.48182C1.50455 10.4004 1.29661 12.5116 1.70176 14.5484C2.1069 16.5852 3.10693 18.4562 4.57538 19.9246C6.04383 21.3931 7.91476 22.3931 9.95156 22.7982C11.9884 23.2034 14.0996 22.9955 16.0182 22.2007C17.9368 21.406 19.5767 20.0602 20.7304 18.3335C21.8842 16.6068 22.5 14.5767 22.5 12.5C22.4968 9.7162 21.3896 7.04733 19.4211 5.07889C17.4527 3.11044 14.7838 2.00318 12 2ZM7.5 20.2828V19.25C7.5006 18.6534 7.73784 18.0815 8.15967 17.6597C8.5815 17.2378 9.15345 17.0006 9.75 17H14.25C14.8466 17.0006 15.4185 17.2378 15.8403 17.6597C16.2622 18.0815 16.4994 18.6534 16.5 19.25V20.2828C15.1344 21.0802 13.5814 21.5004 12 21.5004C10.4186 21.5004 8.86563 21.0802 7.5 20.2828ZM17.994 19.1945C17.9791 18.2107 17.5782 17.2722 16.8779 16.5812C16.1776 15.8901 15.2339 15.5019 14.25 15.5H9.75C8.76614 15.5019 7.82238 15.8901 7.12207 16.5812C6.42176 17.2722 6.02095 18.2107 6.006 19.1945C4.64593 17.9801 3.6868 16.3812 3.25563 14.6095C2.82446 12.8378 2.94158 10.977 3.59148 9.27339C4.24139 7.56978 5.39342 6.10375 6.89503 5.06942C8.39665 4.0351 10.177 3.48127 12.0004 3.48127C13.8237 3.48127 15.6041 4.0351 17.1057 5.06942C18.6073 6.10375 19.7594 7.56978 20.4093 9.27339C21.0592 10.977 21.1763 12.8378 20.7451 14.6095C20.314 16.3812 19.3548 17.9801 17.9948 19.1945H17.994Z" fill="#2D2D2D"/>
</svg>
