<svg width="25" height="25" viewBox="0 0 25 25" fill="none" xmlns="http://www.w3.org/2000/svg">
<path d="M15.2355 12.1683L12.0721 6.0293H9.91521L6.89561 12.1683H1.00018L3.58842 20.1042C4.01979 21.4518 5.31391 22.4999 6.75182 22.4999H15.3793C16.8172 22.4999 17.9675 21.6015 18.5427 20.1042L21.1309 12.1683H15.2355ZM10.778 7.52662H11.2093L13.51 12.1683H8.47731L10.778 7.52662ZM17.1048 19.655C16.8172 20.4036 16.0982 21.0026 15.3793 21.0026H6.75182C6.03286 21.0026 5.31391 20.4036 5.02633 19.655L3.01325 13.6657H18.974L17.1048 19.655Z" fill="#2D2D2D" stroke="#2D2D2D" stroke-width="0.235294"/>
<circle cx="18.6476" cy="7.20588" r="5.2549" fill="#1C8C64" stroke="white" stroke-width="1.09804"/>
<path d="M17.4674 6.06901C17.4924 5.89568 17.5407 5.74401 17.6124 5.61401C17.684 5.48235 17.7732 5.37318 17.8799 5.28651C17.9882 5.19818 18.1115 5.13235 18.2499 5.08901C18.3899 5.04401 18.5399 5.02151 18.6999 5.02151C18.8665 5.02151 19.0165 5.04568 19.1499 5.09401C19.2849 5.14068 19.3999 5.20651 19.4949 5.29151C19.5899 5.37485 19.6624 5.47318 19.7124 5.58651C19.764 5.69985 19.7899 5.82235 19.7899 5.95401C19.7899 6.06901 19.7765 6.17068 19.7499 6.25901C19.7249 6.34568 19.6882 6.42151 19.6399 6.48651C19.5915 6.55151 19.5315 6.60651 19.4599 6.65151C19.3882 6.69651 19.3074 6.73401 19.2174 6.76401C19.434 6.83235 19.5957 6.93651 19.7024 7.07651C19.809 7.21651 19.8624 7.39235 19.8624 7.60401C19.8624 7.78401 19.829 7.94318 19.7624 8.08151C19.6957 8.21985 19.6057 8.33651 19.4924 8.43151C19.379 8.52485 19.2474 8.59568 19.0974 8.64401C18.949 8.69235 18.7915 8.71651 18.6249 8.71651C18.4432 8.71651 18.2849 8.69568 18.1499 8.65401C18.0149 8.61235 17.8974 8.55068 17.7974 8.46901C17.6974 8.38735 17.6124 8.28735 17.5424 8.16901C17.4724 8.05068 17.4124 7.91401 17.3624 7.75901L17.6349 7.64651C17.7065 7.61651 17.7732 7.60901 17.8349 7.62401C17.8982 7.63735 17.944 7.67068 17.9724 7.72401C18.0024 7.78235 18.0349 7.83985 18.0699 7.89651C18.1065 7.95318 18.1499 8.00401 18.1999 8.04901C18.2499 8.09235 18.3082 8.12818 18.3749 8.15651C18.4432 8.18318 18.524 8.19651 18.6174 8.19651C18.7224 8.19651 18.814 8.17985 18.8924 8.14651C18.9707 8.11151 19.0357 8.06651 19.0874 8.01151C19.1407 7.95651 19.1799 7.89568 19.2049 7.82901C19.2315 7.76068 19.2449 7.69235 19.2449 7.62401C19.2449 7.53735 19.2357 7.45901 19.2174 7.38901C19.199 7.31735 19.1607 7.25651 19.1024 7.20651C19.044 7.15651 18.9599 7.11735 18.8499 7.08901C18.7415 7.06068 18.5957 7.04651 18.4124 7.04651V6.60651C18.564 6.60485 18.6899 6.59068 18.7899 6.56401C18.8899 6.53735 18.969 6.50068 19.0274 6.45401C19.0874 6.40568 19.129 6.34818 19.1524 6.28151C19.1757 6.21485 19.1874 6.14151 19.1874 6.06151C19.1874 5.89151 19.1399 5.76235 19.0449 5.67401C18.9499 5.58568 18.8232 5.54151 18.6649 5.54151C18.5915 5.54151 18.524 5.55235 18.4624 5.57401C18.4007 5.59401 18.3449 5.62318 18.2949 5.66151C18.2465 5.69818 18.2057 5.74151 18.1724 5.79151C18.139 5.84151 18.114 5.89651 18.0974 5.95651C18.069 6.03318 18.0315 6.08401 17.9849 6.10901C17.9399 6.13401 17.8757 6.13985 17.7924 6.12651L17.4674 6.06901Z" fill="white"/>
</svg>
