<svg width="298" height="26" viewBox="0 0 298 26" fill="none" xmlns="http://www.w3.org/2000/svg">
<path d="M9.67495 14.222H8.51895C8.51895 15.8087 8.51895 17.3273 8.51895 18.778C8.54161 20.206 8.56428 21.6227 8.58695 23.028H9.67495C11.2616 23.028 12.4856 22.6653 13.3469 21.94C14.2309 21.2147 14.6729 20.1267 14.6729 18.676C14.6729 17.1347 14.2536 16.0127 13.4149 15.31C12.5989 14.5847 11.3523 14.222 9.67495 14.222ZM9.77695 4.634H8.58695C8.56428 5.90333 8.54161 7.19533 8.51895 8.51C8.51895 9.802 8.51895 11.1053 8.51895 12.42H9.47095C10.9216 12.42 11.9869 12.08 12.6669 11.4C13.3469 10.6973 13.6869 9.67733 13.6869 8.34C13.6869 5.86933 12.3836 4.634 9.77695 4.634ZM0.290945 4.498V2.662H11.2729C13.1996 2.662 14.7409 2.9 15.8969 3.376C17.0529 3.82933 17.8916 4.45267 18.4129 5.246C18.9343 6.03933 19.1949 6.93467 19.1949 7.932C19.1949 8.70267 19.0249 9.428 18.6849 10.108C18.3449 10.7653 17.7556 11.3547 16.9169 11.876C16.0783 12.3747 14.9109 12.76 13.4149 13.032C15.9536 13.3267 17.7669 13.9727 18.8549 14.97C19.9656 15.9447 20.5209 17.2027 20.5209 18.744C20.5209 19.4467 20.3623 20.172 20.0449 20.92C19.7276 21.6453 19.1836 22.314 18.4129 22.926C17.6423 23.538 16.5656 24.0367 15.1829 24.422C13.8229 24.8073 12.0889 25 9.98095 25H0.290945V23.164L2.84095 22.892C2.88628 21.4867 2.90895 20.07 2.90895 18.642C2.90895 17.214 2.90895 15.7747 2.90895 14.324V13.338C2.90895 11.9327 2.90895 10.516 2.90895 9.088C2.90895 7.63733 2.88628 6.198 2.84095 4.77L0.290945 4.498ZM35.4254 25.476C33.4534 25.476 32.2068 24.66 31.6854 23.028C30.9601 23.7987 30.2574 24.4107 29.5774 24.864C28.9201 25.2947 28.0021 25.51 26.8234 25.51C25.5088 25.51 24.4321 25.136 23.5934 24.388C22.7774 23.64 22.3694 22.5633 22.3694 21.158C22.3694 20.342 22.5508 19.6053 22.9134 18.948C23.2761 18.2907 23.9334 17.6787 24.8854 17.112C25.8374 16.5453 27.1861 16.0127 28.9314 15.514C29.2714 15.4007 29.6681 15.2873 30.1214 15.174C30.5748 15.0607 31.0394 14.9473 31.5154 14.834V13.712C31.5154 12.1933 31.3228 11.162 30.9374 10.618C30.5748 10.074 29.8494 9.802 28.7614 9.802C28.6028 9.802 28.4554 9.802 28.3194 9.802C28.1834 9.802 28.0248 9.81333 27.8434 9.836L27.6734 11.332C27.6508 12.4427 27.3901 13.2473 26.8914 13.746C26.4154 14.2447 25.8488 14.494 25.1914 14.494C23.9448 14.494 23.1854 13.9273 22.9134 12.794C23.0041 11.3887 23.7181 10.244 25.0554 9.36C26.3928 8.476 28.2854 8.034 30.7334 8.034C32.9094 8.034 34.4621 8.53267 35.3914 9.53C36.3434 10.5273 36.8194 12.1707 36.8194 14.46V22.076C36.8194 22.7333 37.0688 23.062 37.5674 23.062C37.7488 23.062 37.9188 23.0167 38.0774 22.926C38.2361 22.8127 38.4061 22.6087 38.5874 22.314L39.5054 22.926C39.0974 23.8327 38.5648 24.49 37.9074 24.898C37.2728 25.2833 36.4454 25.476 35.4254 25.476ZM27.4014 20.274C27.4014 21.1127 27.5941 21.736 27.9794 22.144C28.3874 22.552 28.8748 22.756 29.4414 22.756C29.6908 22.756 29.9514 22.6993 30.2234 22.586C30.4954 22.4727 30.9261 22.212 31.5154 21.804V16.296C31.2208 16.3867 30.9261 16.4887 30.6314 16.602C30.3594 16.6927 30.1214 16.7833 29.9174 16.874C29.1468 17.1913 28.5348 17.6447 28.0814 18.234C27.6281 18.8007 27.4014 19.4807 27.4014 20.274ZM40.2619 25V23.402L42.1319 22.994C42.1546 22.1327 42.1659 21.2713 42.1659 20.41C42.1886 19.5487 42.1999 18.6987 42.1999 17.86V3.614L40.0919 3.274V1.846L47.2319 0.316L47.7759 0.655999L47.6399 5.416V17.86C47.6399 18.7213 47.6399 19.5827 47.6399 20.444C47.6626 21.3053 47.6853 22.1667 47.7079 23.028L49.5779 23.402V25H40.2619ZM57.1002 16.874C57.1002 18.7327 57.4288 20.1493 58.0862 21.124C58.7435 22.076 59.5935 22.552 60.6362 22.552C61.4068 22.552 62.1095 22.2913 62.7442 21.77V11.638C62.1322 11.162 61.4635 10.924 60.7382 10.924C59.6955 10.924 58.8228 11.4113 58.1202 12.386C57.4402 13.3607 57.1002 14.8567 57.1002 16.874ZM63.1862 25.374L62.9142 23.436C61.5995 24.8187 60.0015 25.51 58.1202 25.51C56.8508 25.51 55.6948 25.1813 54.6522 24.524C53.6322 23.8667 52.8275 22.9033 52.2382 21.634C51.6488 20.342 51.3542 18.778 51.3542 16.942C51.3542 15.0833 51.7055 13.4967 52.4082 12.182C53.1335 10.8447 54.0628 9.82467 55.1962 9.122C56.3522 8.39667 57.5648 8.034 58.8342 8.034C59.7182 8.034 60.4888 8.19267 61.1462 8.51C61.8035 8.80467 62.4042 9.24667 62.9482 9.836V3.614L60.5682 3.274V1.846L67.7422 0.316L68.2862 0.655999L68.1502 5.416V23.062L69.8162 23.402V25L63.1862 25.374ZM80.1777 25.51C78.4097 25.51 76.8797 25.1473 75.5877 24.422C74.2957 23.674 73.2983 22.6427 72.5957 21.328C71.893 19.9907 71.5417 18.4493 71.5417 16.704C71.5417 14.9587 71.9157 13.44 72.6637 12.148C73.4343 10.856 74.477 9.84733 75.7917 9.122C77.1063 8.39667 78.5683 8.034 80.1777 8.034C81.787 8.034 83.2377 8.38533 84.5297 9.088C85.8443 9.79067 86.887 10.7993 87.6577 12.114C88.4283 13.406 88.8137 14.936 88.8137 16.704C88.8137 18.472 88.4623 20.0133 87.7597 21.328C87.057 22.6427 86.0597 23.674 84.7677 24.422C83.4757 25.1473 81.9457 25.51 80.1777 25.51ZM80.1777 23.742C81.1297 23.742 81.8437 23.1867 82.3197 22.076C82.7957 20.9653 83.0337 19.2087 83.0337 16.806C83.0337 14.3807 82.7957 12.6127 82.3197 11.502C81.8437 10.3913 81.1297 9.836 80.1777 9.836C79.203 9.836 78.4777 10.3913 78.0017 11.502C77.5257 12.6127 77.2877 14.3807 77.2877 16.806C77.2877 19.2087 77.5257 20.9653 78.0017 22.076C78.4777 23.1867 79.203 23.742 80.1777 23.742ZM90.6983 25V23.402L92.5683 23.028C92.5909 22.1893 92.6023 21.294 92.6023 20.342C92.6023 19.39 92.6023 18.5627 92.6023 17.86V15.854C92.6023 15.2193 92.5909 14.698 92.5683 14.29C92.5683 13.882 92.5569 13.508 92.5343 13.168C92.5343 12.8053 92.5229 12.3973 92.5003 11.944L90.4263 11.638V10.312L97.1243 8.034L97.7363 8.408L98.0423 12.42C98.5183 10.9693 99.1869 9.88133 100.048 9.156C100.91 8.408 101.76 8.034 102.598 8.034C103.346 8.034 103.992 8.24933 104.536 8.68C105.08 9.088 105.42 9.71133 105.556 10.55C105.534 11.434 105.296 12.1253 104.842 12.624C104.389 13.1 103.822 13.338 103.142 13.338C102.19 13.338 101.318 12.8053 100.524 11.74L100.32 11.468C99.8216 11.944 99.3569 12.5447 98.9263 13.27C98.5183 13.9953 98.2236 14.7547 98.0423 15.548V17.86C98.0423 18.5627 98.0423 19.3673 98.0423 20.274C98.0423 21.1807 98.0536 22.0307 98.0763 22.824L100.762 23.402V25H90.6983ZM106.605 25V23.402L108.441 22.994C108.464 22.178 108.475 21.294 108.475 20.342C108.475 19.39 108.475 18.5627 108.475 17.86V16.228C108.475 15.2987 108.464 14.528 108.441 13.916C108.441 13.2813 108.418 12.624 108.373 11.944L106.265 11.638V10.312L113.405 8.034L113.983 8.408L113.881 13.338V17.86C113.881 18.5627 113.881 19.4013 113.881 20.376C113.881 21.328 113.892 22.2233 113.915 23.062L115.615 23.402V25H106.605ZM111.127 5.518C110.334 5.518 109.654 5.26867 109.087 4.77C108.52 4.24867 108.237 3.60267 108.237 2.832C108.237 2.03867 108.52 1.39267 109.087 0.893998C109.654 0.372665 110.334 0.111998 111.127 0.111998C111.92 0.111998 112.6 0.372665 113.167 0.893998C113.734 1.39267 114.017 2.03867 114.017 2.832C114.017 3.60267 113.734 4.24867 113.167 4.77C112.6 5.26867 111.92 5.518 111.127 5.518ZM130.453 25.476C128.481 25.476 127.234 24.66 126.713 23.028C125.987 23.7987 125.285 24.4107 124.605 24.864C123.947 25.2947 123.029 25.51 121.851 25.51C120.536 25.51 119.459 25.136 118.621 24.388C117.805 23.64 117.397 22.5633 117.397 21.158C117.397 20.342 117.578 19.6053 117.941 18.948C118.303 18.2907 118.961 17.6787 119.913 17.112C120.865 16.5453 122.213 16.0127 123.959 15.514C124.299 15.4007 124.695 15.2873 125.149 15.174C125.602 15.0607 126.067 14.9473 126.543 14.834V13.712C126.543 12.1933 126.35 11.162 125.965 10.618C125.602 10.074 124.877 9.802 123.789 9.802C123.63 9.802 123.483 9.802 123.347 9.802C123.211 9.802 123.052 9.81333 122.871 9.836L122.701 11.332C122.678 12.4427 122.417 13.2473 121.919 13.746C121.443 14.2447 120.876 14.494 120.219 14.494C118.972 14.494 118.213 13.9273 117.941 12.794C118.031 11.3887 118.745 10.244 120.083 9.36C121.42 8.476 123.313 8.034 125.761 8.034C127.937 8.034 129.489 8.53267 130.419 9.53C131.371 10.5273 131.847 12.1707 131.847 14.46V22.076C131.847 22.7333 132.096 23.062 132.595 23.062C132.776 23.062 132.946 23.0167 133.105 22.926C133.263 22.8127 133.433 22.6087 133.615 22.314L134.533 22.926C134.125 23.8327 133.592 24.49 132.935 24.898C132.3 25.2833 131.473 25.476 130.453 25.476ZM122.429 20.274C122.429 21.1127 122.621 21.736 123.007 22.144C123.415 22.552 123.902 22.756 124.469 22.756C124.718 22.756 124.979 22.6993 125.251 22.586C125.523 22.4727 125.953 22.212 126.543 21.804V16.296C126.248 16.3867 125.953 16.4887 125.659 16.602C125.387 16.6927 125.149 16.7833 124.945 16.874C124.174 17.1913 123.562 17.6447 123.109 18.234C122.655 18.8007 122.429 19.4807 122.429 20.274ZM155.908 4.396V2.662H163.286V4.498L160.736 4.906L153.732 25.068H150.434L143.124 4.702L141.152 4.498V2.662H152.1V4.396L149.21 4.77L153.868 18.778L158.56 4.838L155.908 4.396ZM169.887 9.802C169.252 9.802 168.663 10.1987 168.119 10.992C167.598 11.7627 167.303 13.1907 167.235 15.276H170.125C170.941 15.276 171.485 15.1173 171.757 14.8C172.052 14.46 172.199 13.9047 172.199 13.134C172.199 12.0007 171.972 11.162 171.519 10.618C171.066 10.074 170.522 9.802 169.887 9.802ZM169.955 25.51C168.3 25.51 166.838 25.17 165.569 24.49C164.3 23.7873 163.302 22.79 162.577 21.498C161.852 20.1833 161.489 18.6193 161.489 16.806C161.489 14.902 161.908 13.304 162.747 12.012C163.608 10.6973 164.708 9.71133 166.045 9.054C167.382 8.374 168.776 8.034 170.227 8.034C171.723 8.034 172.992 8.35133 174.035 8.986C175.1 9.62067 175.905 10.482 176.449 11.57C176.993 12.6353 177.265 13.8593 177.265 15.242C177.265 15.8993 177.197 16.5 177.061 17.044H167.235C167.348 18.8347 167.836 20.1607 168.697 21.022C169.581 21.8607 170.612 22.28 171.791 22.28C172.72 22.28 173.514 22.11 174.171 21.77C174.828 21.4073 175.406 20.9653 175.905 20.444L177.095 21.532C176.392 22.8693 175.44 23.8667 174.239 24.524C173.038 25.1813 171.61 25.51 169.955 25.51ZM179.151 25V23.402L181.021 23.028C181.044 22.1893 181.055 21.294 181.055 20.342C181.055 19.39 181.055 18.5627 181.055 17.86V15.854C181.055 15.2193 181.044 14.698 181.021 14.29C181.021 13.882 181.01 13.508 180.987 13.168C180.987 12.8053 180.976 12.3973 180.953 11.944L178.879 11.638V10.312L185.577 8.034L186.189 8.408L186.495 12.42C186.971 10.9693 187.64 9.88133 188.501 9.156C189.363 8.408 190.213 8.034 191.051 8.034C191.799 8.034 192.445 8.24933 192.989 8.68C193.533 9.088 193.873 9.71133 194.009 10.55C193.987 11.434 193.749 12.1253 193.295 12.624C192.842 13.1 192.275 13.338 191.595 13.338C190.643 13.338 189.771 12.8053 188.977 11.74L188.773 11.468C188.275 11.944 187.81 12.5447 187.379 13.27C186.971 13.9953 186.677 14.7547 186.495 15.548V17.86C186.495 18.5627 186.495 19.3673 186.495 20.274C186.495 21.1807 186.507 22.0307 186.529 22.824L189.215 23.402V25H179.151ZM194.99 25V23.402L196.826 22.994C196.849 22.178 196.86 21.294 196.86 20.342C196.86 19.39 196.86 18.5627 196.86 17.86V15.888C196.86 14.9587 196.849 14.2447 196.826 13.746C196.826 13.2247 196.803 12.624 196.758 11.944L194.684 11.638V10.312L201.382 8.034L201.994 8.408L202.198 10.856C202.991 9.92667 203.819 9.224 204.68 8.748C205.564 8.272 206.505 8.034 207.502 8.034C209.837 8.034 211.344 9.04267 212.024 11.06C212.953 9.92667 213.849 9.14467 214.71 8.714C215.594 8.26067 216.523 8.034 217.498 8.034C219.221 8.034 220.479 8.53267 221.272 9.53C222.065 10.5273 222.462 12.0347 222.462 14.052V17.86C222.462 18.5853 222.462 19.424 222.462 20.376C222.462 21.328 222.473 22.212 222.496 23.028L224.196 23.402V25H215.424V23.402L217.09 22.994C217.113 22.178 217.124 21.3053 217.124 20.376C217.124 19.424 217.124 18.5853 217.124 17.86V14.562C217.124 13.2927 216.977 12.4427 216.682 12.012C216.387 11.5587 215.889 11.332 215.186 11.332C214.234 11.332 213.282 11.74 212.33 12.556C212.353 12.76 212.364 12.9753 212.364 13.202C212.387 13.406 212.398 13.6327 212.398 13.882V17.86C212.398 18.608 212.398 19.458 212.398 20.41C212.398 21.3393 212.409 22.2233 212.432 23.062L214.03 23.402V25H205.258V23.402L207.026 22.994C207.049 22.178 207.06 21.3053 207.06 20.376C207.06 19.424 207.06 18.5853 207.06 17.86V14.596C207.06 13.3947 206.913 12.556 206.618 12.08C206.346 11.5813 205.836 11.332 205.088 11.332C204.612 11.332 204.136 11.4453 203.66 11.672C203.184 11.8987 202.731 12.1933 202.3 12.556V17.86C202.3 18.5627 202.3 19.4013 202.3 20.376C202.3 21.328 202.311 22.2233 202.334 23.062L203.932 23.402V25H194.99ZM234.506 25.51C232.738 25.51 231.208 25.1473 229.916 24.422C228.624 23.674 227.626 22.6427 226.924 21.328C226.221 19.9907 225.87 18.4493 225.87 16.704C225.87 14.9587 226.244 13.44 226.992 12.148C227.762 10.856 228.805 9.84733 230.12 9.122C231.434 8.39667 232.896 8.034 234.506 8.034C236.115 8.034 237.566 8.38533 238.858 9.088C240.172 9.79067 241.215 10.7993 241.986 12.114C242.756 13.406 243.142 14.936 243.142 16.704C243.142 18.472 242.79 20.0133 242.088 21.328C241.385 22.6427 240.388 23.674 239.096 24.422C237.804 25.1473 236.274 25.51 234.506 25.51ZM234.506 23.742C235.458 23.742 236.172 23.1867 236.648 22.076C237.124 20.9653 237.362 19.2087 237.362 16.806C237.362 14.3807 237.124 12.6127 236.648 11.502C236.172 10.3913 235.458 9.836 234.506 9.836C233.531 9.836 232.806 10.3913 232.33 11.502C231.854 12.6127 231.616 14.3807 231.616 16.806C231.616 19.2087 231.854 20.9653 232.33 22.076C232.806 23.1867 233.531 23.742 234.506 23.742ZM256.997 25.374L256.793 22.518C256.067 23.47 255.24 24.2067 254.311 24.728C253.381 25.2493 252.373 25.51 251.285 25.51C249.834 25.51 248.667 25.0567 247.783 24.15C246.899 23.2207 246.468 21.634 246.491 19.39L246.627 11.094L244.655 10.652V9.224L251.591 8.238L252.135 8.612L251.965 13.406V19.424C251.965 20.4667 252.123 21.192 252.441 21.6C252.781 22.008 253.234 22.212 253.801 22.212C254.277 22.212 254.764 22.0647 255.263 21.77C255.784 21.4753 256.271 21.1127 256.725 20.682L256.861 11.06L254.991 10.652V9.326L261.757 8.238L262.301 8.612L262.199 13.406V23.062L263.967 23.436V25.034L256.997 25.374ZM272.073 25.51C270.554 25.51 269.364 25.1473 268.503 24.422C267.642 23.674 267.211 22.4613 267.211 20.784C267.211 20.1947 267.211 19.6507 267.211 19.152C267.234 18.6307 267.245 18.0413 267.245 17.384V10.89H265.035V8.884L267.551 8.544L269.251 3.784H272.719L272.651 8.578H276.221V10.89H272.651V20.41C272.651 21.2033 272.81 21.7927 273.127 22.178C273.467 22.5407 273.886 22.722 274.385 22.722C274.974 22.722 275.586 22.4727 276.221 21.974L277.071 22.79C276.618 23.6513 275.983 24.32 275.167 24.796C274.374 25.272 273.342 25.51 272.073 25.51ZM277.799 25V23.402L279.635 22.994C279.657 22.178 279.669 21.294 279.669 20.342C279.669 19.39 279.669 18.5627 279.669 17.86V3.614L277.561 3.274V1.846L284.599 0.316L285.143 0.655999L285.007 5.416V10.89C285.913 9.82467 286.786 9.088 287.625 8.68C288.486 8.24933 289.415 8.034 290.413 8.034C291.909 8.034 293.11 8.52133 294.017 9.496C294.923 10.4707 295.377 11.9327 295.377 13.882V17.86C295.377 18.608 295.377 19.458 295.377 20.41C295.377 21.3393 295.388 22.2233 295.411 23.062L297.111 23.402V25H288.169V23.402L289.937 23.028C289.959 22.1893 289.971 21.3053 289.971 20.376C289.971 19.424 289.971 18.5853 289.971 17.86V14.29C289.971 13.1793 289.835 12.4087 289.563 11.978C289.313 11.5473 288.837 11.332 288.135 11.332C287.681 11.332 287.194 11.468 286.673 11.74C286.151 12.012 285.63 12.3973 285.109 12.896V17.86C285.109 18.5627 285.109 19.4013 285.109 20.376C285.109 21.328 285.12 22.2233 285.143 23.062L286.741 23.402V25H277.799Z" fill="black"/>
</svg>
