<svg width="25" height="24" viewBox="0 0 25 24" fill="none" xmlns="http://www.w3.org/2000/svg">
<path d="M8.5 3C5.739 3 3.5 5.239 3.5 8V16C3.5 18.761 5.739 21 8.5 21H16.5C19.261 21 21.5 18.761 21.5 16V8C21.5 5.239 19.261 3 16.5 3H8.5ZM18.5 5C19.052 5 19.5 5.448 19.5 6C19.5 6.552 19.052 7 18.5 7C17.948 7 17.5 6.552 17.5 6C17.5 5.448 17.948 5 18.5 5ZM12.5 7C15.261 7 17.5 9.239 17.5 12C17.5 14.761 15.261 17 12.5 17C9.739 17 7.5 14.761 7.5 12C7.5 9.239 9.739 7 12.5 7ZM12.5 9C11.7044 9 10.9413 9.31607 10.3787 9.87868C9.81607 10.4413 9.5 11.2044 9.5 12C9.5 12.7956 9.81607 13.5587 10.3787 14.1213C10.9413 14.6839 11.7044 15 12.5 15C13.2956 15 14.0587 14.6839 14.6213 14.1213C15.1839 13.5587 15.5 12.7956 15.5 12C15.5 11.2044 15.1839 10.4413 14.6213 9.87868C14.0587 9.31607 13.2956 9 12.5 9Z" fill="white"/>
</svg>
