<svg width="13" height="14" viewBox="0 0 13 14" fill="none" xmlns="http://www.w3.org/2000/svg">
<path d="M5 0.600037C4.26302 0.600037 3.66667 1.19639 3.66667 1.93337C3.66667 2.67035 4.26302 3.2667 5 3.2667C5.73698 3.2667 6.33333 2.67035 6.33333 1.93337C6.33333 1.19639 5.73698 0.600037 5 0.600037ZM6.72917 3.3917C6.6276 3.3917 6.51823 3.40993 6.41667 3.43337V3.41254L6.3125 3.43337L4.89583 3.68337H4.83333L4.79167 3.7042C4.46615 3.81358 4.14583 4.02972 3.91667 4.37087L3.875 4.41254L2.95833 6.0792H2.9375V6.10004C2.8099 6.35525 2.53385 6.48545 2.20833 6.41254L1.04167 6.10004L0.6875 7.37087L1.89583 7.7042L1.91667 7.72504C2.78125 7.91775 3.6901 7.5167 4.10417 6.72504H4.125C4.1276 6.71983 4.1224 6.70941 4.125 6.7042L4.33333 6.3292V8.53754L3.27083 10.1417C3.00521 10.5427 2.99219 10.9907 3.125 11.3917L4.20833 13.9334H5.60417L4.54167 11.1417C4.47396 10.9412 4.47135 10.7328 4.60417 10.6L5.45833 9.30837L5.66667 9.2667V9.99587C5.66667 10.5427 5.875 11.0558 6.20833 11.475L7.8125 13.475L8.85417 12.6417L7.27083 10.6625L7.25 10.6417C7.05208 10.3943 7 10.2485 7 9.99587V5.03754L7.41667 5.43337H7.4375C8.11458 6.0141 9.11719 6.12868 9.89583 5.6417L9.9375 5.60004L10.7292 4.99587L9.9375 3.93337L9.1875 4.49587C8.90625 4.67035 8.5651 4.6391 8.3125 4.43337H8.29167L7.54167 3.72504C7.53385 3.71722 7.52865 3.70941 7.52083 3.7042C7.31771 3.5115 7.03385 3.39431 6.72917 3.3917ZM11 6.72504V7.30837C10.9974 7.33702 10.9974 7.36306 11 7.3917V9.43337C10.8932 9.42556 10.7865 9.44639 10.6667 9.47504C10.1328 9.60785 9.66667 10.0714 9.66667 10.5375C9.66667 11.0037 10.1328 11.2745 10.6667 11.1417C11.1562 11.0193 11.5755 10.6079 11.6458 10.1834C11.6536 10.1625 11.6615 10.1417 11.6667 10.1209C11.6667 10.1079 11.6667 10.0922 11.6667 10.0792C11.6667 10.0714 11.6667 10.0662 11.6667 10.0584V8.0167C12.7995 8.30316 13 9.2667 13 9.2667V8.60004C13 7.66775 12.2656 6.72504 11 6.72504Z" fill="#2D2D2D"/>
</svg>
