<?xml version="1.0" encoding="UTF-8" standalone="no"?>
<svg
   width="18"
   height="23"
   viewBox="0 0 18 23"
   fill="none"
   version="1.1"
   id="svg4"
   sodipodi:docname="Vector-1.svg"
   inkscape:version="1.2 (dc2aedaf03, 2022-05-15)"
   xmlns:inkscape="http://www.inkscape.org/namespaces/inkscape"
   xmlns:sodipodi="http://sodipodi.sourceforge.net/DTD/sodipodi-0.dtd"
   xmlns="http://www.w3.org/2000/svg"
   xmlns:svg="http://www.w3.org/2000/svg">
  <defs
     id="defs8" />
  <sodipodi:namedview
     id="namedview6"
     pagecolor="#ffffff"
     bordercolor="#000000"
     borderopacity="0.25"
     inkscape:showpageshadow="2"
     inkscape:pageopacity="0.0"
     inkscape:pagecheckerboard="0"
     inkscape:deskcolor="#d1d1d1"
     showgrid="false"
     inkscape:zoom="10.26087"
     inkscape:cx="8.9661017"
     inkscape:cy="11.5"
     inkscape:window-width="1280"
     inkscape:window-height="737"
     inkscape:window-x="-8"
     inkscape:window-y="-8"
     inkscape:window-maximized="1"
     inkscape:current-layer="svg4" />
  <path
     d="M14.6675 3.21164C13.2421 1.78666 11.3395 0.940164 9.32672 0.835526C7.31396 0.730889 5.33378 1.37553 3.76836 2.64503C2.20295 3.91453 1.16326 5.71889 0.849971 7.70987C0.536682 9.70085 0.971997 11.7373 2.0719 13.4262L7.73941 22.1268C7.86553 22.3204 8.03798 22.4795 8.24112 22.5896C8.44426 22.6997 8.67167 22.7574 8.90273 22.7574C9.13379 22.7574 9.3612 22.6997 9.56434 22.5896C9.76748 22.4795 9.93993 22.3204 10.0661 22.1268L15.7338 13.4262C16.7543 11.8595 17.2054 9.98961 17.0112 8.12992C16.8171 6.27023 15.9896 4.53379 14.6675 3.21164V3.21164ZM14.4769 12.6074L8.90276 21.1645L3.32852 12.6074C1.62227 9.98812 1.98823 6.48281 4.19866 4.27228C4.81641 3.65452 5.54978 3.16448 6.35691 2.83015C7.16404 2.49582 8.02912 2.32374 8.90276 2.32374C9.77639 2.32374 10.6415 2.49582 11.4486 2.83015C12.2557 3.16448 12.9891 3.65452 13.6068 4.27228C15.8173 6.48281 16.1832 9.98812 14.4769 12.6074Z"
     fill="#2D2D2D"
     id="path2" />
  <path
     d="m 8.8686441,5.7711902 c -0.59334,0 -1.17336,0.175944 -1.66671,0.505594 -0.49335,0.32964 -0.87786,0.79818 -1.10493,1.34635 -0.22706,0.54818 -0.28647,1.15138 -0.170715,1.73332 0.115755,0.58194 0.401475,1.1164898 0.821035,1.5360498 0.41956,0.41956 0.95411,0.70528 1.53605,0.82103 0.58194,0.11576 1.18514,0.05635 1.7333199,-0.17071 0.54818,-0.22706 1.01672,-0.61158 1.34636,-1.10493 0.32964,-0.4933498 0.50559,-1.0733598 0.50559,-1.6667098 -9e-4,-0.79537 -0.31727,-1.5579 -0.87968,-2.12032 -0.56241,-0.56241 -1.3249499,-0.878768 -2.1203199,-0.879674 z m 0,4.4999938 c -0.29667,0 -0.58668,-0.08797 -0.83335,-0.25279 -0.24668,-0.1648298 -0.43894,-0.3990898 -0.55247,-0.6731798 -0.11353,-0.27409 -0.14324,-0.57569 -0.08536,-0.86666 0.05788,-0.29097 0.20074,-0.55825 0.41052,-0.76803 0.20978,-0.20978 0.47705,-0.35264 0.76803,-0.41051 0.29097,-0.05788 0.59257,-0.02818 0.86666,0.08536 0.27408,0.11353 0.50835,0.30578 0.6731799,0.55246 0.16482,0.24667 0.25279,0.53668 0.25279,0.83335 -4.6e-4,0.39769 -0.15864,0.77895 -0.4398499,1.06015 -0.2812,0.2812098 -0.66247,0.4393898 -1.06015,0.4398498 z"
     fill="#2d2d2d"
     id="path60" />
</svg>
