<?xml version="1.0" encoding="UTF-8" standalone="no"?>
<svg
   width="22"
   height="21"
   viewBox="0 0 22 21"
   fill="none"
   version="1.1"
   id="svg116"
   sodipodi:docname="Vector-1.svg"
   inkscape:version="1.2 (dc2aedaf03, 2022-05-15)"
   xmlns:inkscape="http://www.inkscape.org/namespaces/inkscape"
   xmlns:sodipodi="http://sodipodi.sourceforge.net/DTD/sodipodi-0.dtd"
   xmlns="http://www.w3.org/2000/svg"
   xmlns:svg="http://www.w3.org/2000/svg">
  <defs
     id="defs120" />
  <sodipodi:namedview
     id="namedview118"
     pagecolor="#ffffff"
     bordercolor="#000000"
     borderopacity="0.25"
     inkscape:showpageshadow="2"
     inkscape:pageopacity="0.0"
     inkscape:pagecheckerboard="0"
     inkscape:deskcolor="#d1d1d1"
     showgrid="false"
     inkscape:zoom="11.238095"
     inkscape:cx="11.033898"
     inkscape:cy="10.5"
     inkscape:window-width="1280"
     inkscape:window-height="737"
     inkscape:window-x="-8"
     inkscape:window-y="-8"
     inkscape:window-maximized="1"
     inkscape:current-layer="svg116" />
  <path
     d="M11 0C8.9233 0 6.89323 0.615814 5.16652 1.76957C3.4398 2.92332 2.09399 4.5632 1.29927 6.48182C0.504549 8.40045 0.296614 10.5116 0.701759 12.5484C1.1069 14.5852 2.10693 16.4562 3.57538 17.9246C5.04383 19.3931 6.91476 20.3931 8.95156 20.7982C10.9884 21.2034 13.0996 20.9955 15.0182 20.2007C16.9368 19.406 18.5767 18.0602 19.7304 16.3335C20.8842 14.6068 21.5 12.5767 21.5 10.5C21.4968 7.7162 20.3896 5.04733 18.4211 3.07889C16.4527 1.11044 13.7838 0.00317604 11 0V0ZM6.50001 18.2828V17.25C6.5006 16.6534 6.73784 16.0815 7.15967 15.6597C7.5815 15.2378 8.15345 15.0006 8.75001 15H13.25C13.8466 15.0006 14.4185 15.2378 14.8403 15.6597C15.2622 16.0815 15.4994 16.6534 15.5 17.25V18.2828C14.1344 19.0802 12.5814 19.5004 11 19.5004C9.41862 19.5004 7.86563 19.0802 6.50001 18.2828V18.2828ZM16.994 17.1945C16.9791 16.2107 16.5782 15.2722 15.8779 14.5812C15.1776 13.8901 14.2339 13.5019 13.25 13.5H8.75001C7.76614 13.5019 6.82238 13.8901 6.12207 14.5812C5.42176 15.2722 5.02095 16.2107 5.006 17.1945C3.64593 15.9801 2.6868 14.3812 2.25563 12.6095C1.82446 10.8378 1.94158 8.97701 2.59148 7.27339C3.24139 5.56978 4.39342 4.10375 5.89503 3.06942C7.39665 2.0351 9.17701 1.48127 11.0004 1.48127C12.8237 1.48127 14.6041 2.0351 16.1057 3.06942C17.6073 4.10375 18.7594 5.56978 19.4093 7.27339C20.0592 8.97701 20.1763 10.8378 19.7451 12.6095C19.314 14.3812 18.3548 15.9801 16.9948 17.1945H16.994Z"
     fill="#2D2D2D"
     id="path114" />
  <path
     d="m 10.855933,4.7923712 c -0.74168,0 -1.4667004,0.219934 -2.0833904,0.63199 -0.61668,0.41205 -1.097328,0.99772 -1.3811574,1.68295 -0.283828,0.68522 -0.358091,1.43922 -0.213396,2.16665 0.144694,0.7274298 0.5018484,1.3956098 1.0262934,1.9200598 0.52445,0.52445 1.19263,0.8816 1.9200604,1.0263 0.72743,0.14469 1.48143,0.07043 2.16666,-0.2134 0.68522,-0.28383 1.27089,-0.76448 1.68294,-1.38116 0.41206,-0.61669 0.63199,-1.3417098 0.63199,-2.0833898 0,-0.99456 -0.39509,-1.94839 -1.09835,-2.65165 -0.70326,-0.703262 -1.65709,-1.09835 -2.65165,-1.09835 z m 0,5.9999998 c -0.44501,0 -0.8800204,-0.13196 -1.2500304,-0.37919 -0.37001,-0.24724 -0.6584,-0.5986398 -0.8287,-1.0097698 -0.17029,-0.41114 -0.21485,-0.86354 -0.12804,-1.29999 0.08682,-0.43646 0.30111,-0.83737 0.61578,-1.15204 0.31467,-0.31467 0.71558,-0.52896 1.1520404,-0.61578 0.43646,-0.08681 0.88886,-0.04226 1.29999,0.12804 0.41113,0.1703 0.76254,0.45869 1.00977,0.8287 0.24723,0.37001 0.37919,0.80502 0.37919,1.25003 -5.9e-4,0.59655 -0.23784,1.1685 -0.65967,1.5903298 -0.42182,0.42183 -0.99377,0.65907 -1.59033,0.65967 z"
     fill="#2d2d2d"
     id="path2" />
</svg>
