<svg width="19" height="18" viewBox="0 0 19 18" fill="none" xmlns="http://www.w3.org/2000/svg">
<path fill-rule="evenodd" clip-rule="evenodd" d="M4.5 0C2.29086 0 0.5 1.79086 0.5 4V14C0.5 16.2091 2.29086 18 4.5 18H14.5C16.7091 18 18.5 16.2091 18.5 14V4C18.5 1.79086 16.7091 0 14.5 0H4.5ZM3.5 9C3.5 8.3 4.1 7.7 4.8 7.7C5.5 7.7 6.1 8.2 6.1 8.9V13.5C6.1 14.2 5.5 14.8 4.8 14.8C4.1 14.8 3.5 14.2 3.5 13.5V9ZM4.9 4C4 4 3.5 4.5 3.5 5.2C3.5 5.9 4 6.4 4.8 6.4C5.7 6.4 6.2 5.9 6.2 5.2C6.2 4.5 5.6 4 4.9 4ZM10.7 9C10.7 9 11 7.7 12.9 7.7C14.1 7.7 15.1 8.7 15.1 10.9V13.5C15.1 14.2 14.6 14.7 13.9 14.7C13.2 14.7 12.7 14.2 12.7 13.5V10.9C12.7 9.8 12.1 9.7 11.8 9.7C11.5 9.7 10.7 9.8 10.7 10.9V13.5C10.7 14.2 10.2 14.7 9.5 14.7H9.3C8.6 14.7 8.1 14.2 8.1 13.5V9C8.1 8.3 8.7 7.7 9.4 7.7C10.1 7.7 10.7 8.3 10.7 9Z" fill="white"/>
</svg>
