<svg width="19" height="18" viewBox="0 0 19 18" fill="none" xmlns="http://www.w3.org/2000/svg">
<path fill-rule="evenodd" clip-rule="evenodd" d="M4.5 0C2.29086 0 0.5 1.79086 0.5 4V14C0.5 16.2091 2.29086 18 4.5 18H14.5C16.7091 18 18.5 16.2091 18.5 14V4C18.5 1.79086 16.7091 0 14.5 0H4.5ZM6.44788 13C8.62774 13 10.3958 11.2092 10.3958 9C10.3958 6.79082 8.62774 5 6.44788 5C4.26803 5 2.5 6.79217 2.5 9C2.5 11.2078 4.26803 13 6.44788 13ZM14.7285 9.00049C14.7285 11.0801 13.8445 12.7657 12.7539 12.7657C11.6633 12.7657 10.7793 11.0801 10.7793 9.00049C10.7793 6.92087 11.6633 5.2353 12.7539 5.2353C13.8445 5.2353 14.7285 6.92087 14.7285 9.00049ZM15.8062 12.3763C16.1899 12.3763 16.5011 10.8662 16.5011 9.00387C16.5011 7.14017 16.1899 5.6314 15.8062 5.6314C15.4225 5.6314 15.1113 7.14152 15.1113 9.00387C15.1113 10.8662 15.4225 12.3763 15.8062 12.3763Z" fill="white"/>
</svg>
