<svg width="25" height="24" viewBox="0 0 25 24" fill="none" xmlns="http://www.w3.org/2000/svg">
<g clip-path="url(#clip0_1691_1568)">
<path d="M12.4027 5.98083C11.8093 5.98083 11.2293 6.15678 10.736 6.48643C10.2426 6.81607 9.85811 7.2846 9.63104 7.83278C9.40398 8.38096 9.34457 8.98416 9.46032 9.5661C9.57608 10.148 9.8618 10.6826 10.2814 11.1021C10.7009 11.5217 11.2355 11.8074 11.8174 11.9232C12.3994 12.0389 13.0026 11.9795 13.5507 11.7525C14.0989 11.5254 14.5674 11.1409 14.8971 10.6475C15.2267 10.1542 15.4027 9.57417 15.4027 8.98083C15.4018 8.18546 15.0854 7.42293 14.523 6.86051C13.9606 6.2981 13.1981 5.98174 12.4027 5.98083V5.98083ZM12.4027 10.4808C12.106 10.4808 11.816 10.3929 11.5693 10.228C11.3227 10.0632 11.1304 9.82894 11.0169 9.55486C10.9033 9.28077 10.8736 8.97917 10.9315 8.6882C10.9894 8.39722 11.1322 8.12995 11.342 7.92017C11.5518 7.71039 11.8191 7.56753 12.11 7.50965C12.401 7.45178 12.7026 7.48148 12.9767 7.59501C13.2508 7.70855 13.4851 7.9008 13.6499 8.14748C13.8147 8.39415 13.9027 8.68416 13.9027 8.98083C13.9022 9.37851 13.744 9.75978 13.4628 10.041C13.1816 10.3222 12.8004 10.4804 12.4027 10.4808V10.4808Z" fill="#2D2D2D"/>
<path d="M18.1675 3.2117C16.7421 1.78672 14.8395 0.940225 12.8267 0.835587C10.814 0.73095 8.83378 1.37559 7.26836 2.64509C5.70295 3.91459 4.66326 5.71895 4.34997 7.70993C4.03668 9.70091 4.472 11.7374 5.5719 13.4263L11.2394 22.1269C11.3655 22.3205 11.538 22.4795 11.7411 22.5897C11.9443 22.6998 12.1717 22.7574 12.4027 22.7574C12.6338 22.7574 12.8612 22.6998 13.0643 22.5897C13.2675 22.4795 13.4399 22.3205 13.5661 22.1269L19.2338 13.4263C20.2543 11.8596 20.7054 9.98967 20.5112 8.12998C20.3171 6.27029 19.4896 4.53385 18.1675 3.2117V3.2117ZM17.9769 12.6075L12.4028 21.1645L6.82852 12.6075C5.12227 9.98818 5.48823 6.48287 7.69866 4.27234C8.31641 3.65458 9.04978 3.16454 9.85691 2.83021C10.664 2.49588 11.5291 2.3238 12.4028 2.3238C13.2764 2.3238 14.1415 2.49588 14.9486 2.83021C15.7557 3.16454 16.4891 3.65458 17.1068 4.27234C19.3173 6.48287 19.6832 9.98818 17.9769 12.6075Z" fill="#2D2D2D"/>
</g>
<defs>
<clipPath id="clip0_1691_1568">
<rect width="24" height="24" fill="white" transform="translate(0.5)"/>
</clipPath>
</defs>
</svg>
