<svg width="106" height="24" viewBox="0 0 106 24" fill="none" xmlns="http://www.w3.org/2000/svg">
<g clip-path="url(#clip0_308_512)">
<path d="M19.3558 15.8106L19.388 23.9016L0.583225 23.9338V23.418C1.61363 22.7411 2.12883 21.355 2.12883 19.2597L2.09663 4.91517C2.09663 2.81989 1.58143 1.43379 0.551025 0.756856V0.241097L9.79244 0.208862V0.724621C8.76203 1.46603 8.24683 2.85213 8.24683 4.88293L8.27903 19.2597C8.27903 20.5169 8.53663 21.3872 9.05184 21.903C9.56704 22.4188 10.4042 22.6766 11.5634 22.6766H11.66C13.4954 22.6766 15.0088 22.0319 16.2324 20.7748C17.456 19.5176 18.3254 17.8414 18.8406 15.7784L19.3558 15.8106Z" fill="white"/>
<path d="M40.5742 17.5125V23.8306L22.51 23.8628V23.347C23.5404 22.6701 24.0556 21.284 24.0556 19.1887L24.0234 4.84418C24.0234 2.74891 23.5082 1.36281 22.4778 0.685873V0.170114L39.7048 0.137878V6.45593H39.1896C38.5134 4.94089 37.5796 3.68372 36.3882 2.74891C35.1646 1.8141 33.78 1.33057 32.1378 1.33057H30.1736L30.2058 11.3234L31.7514 11.1945C32.7818 11.0978 33.619 10.7432 34.2308 10.1307C34.8748 9.51825 35.4222 8.68014 35.9374 7.64862H36.4526L36.4848 15.9008H35.9696C35.4222 14.9015 34.8426 14.0956 34.2308 13.4509C33.619 12.8385 32.7818 12.4839 31.7514 12.3872L30.2058 12.2582L30.238 19.221C30.238 20.4459 30.4634 21.3162 30.9142 21.8642C31.365 22.4122 32.0734 22.6701 33.0394 22.6701H33.1038C34.6816 22.6701 36.0984 22.1866 37.2898 21.2195C38.4812 20.2525 39.415 19.0276 40.059 17.5125H40.5742Z" fill="white"/>
<path d="M78.1408 19.056C78.1408 21.0868 78.656 22.4407 79.6864 23.2144V23.7301L70.445 23.7623V23.2466C71.4754 22.5697 71.9906 21.1835 71.9906 19.0883L71.9584 4.74372C71.9584 2.64845 71.4432 1.26234 70.4128 0.585409V0.0696496L79.6542 0.0374146V0.553174C78.6238 1.29458 78.1086 2.68068 78.1086 4.71148L78.1408 19.056Z" fill="white"/>
<path d="M98.4338 22.854C97.3068 22.0803 96.1476 20.8876 94.8918 19.1792C94.602 18.7924 94.3122 18.3733 94.0224 17.8898C93.7326 17.4063 93.4428 16.9872 93.2496 16.6326C93.0242 16.278 92.7344 15.7301 92.348 14.9886C91.9616 14.2472 91.6396 13.6992 91.4464 13.3447V12.8611C94.5698 11.9908 96.1154 9.79882 96.1154 6.34968C96.1154 2.90054 94.6342 1.19208 91.6718 1.19208H90.8989L90.9312 19.018C90.9312 21.0488 91.4464 22.4349 92.4768 23.1763V23.6921L83.2353 23.7243V23.2086C84.2657 22.5639 84.7809 21.1778 84.7809 19.0503L84.7487 4.70569C84.7487 2.61042 84.2335 1.22432 83.2031 0.547384V0.0316247L92.9598 -0.000610352C99.4642 -0.000610352 102.749 2.1269 102.749 6.44638C102.749 8.18707 102.201 9.5087 101.139 10.4758C100.076 11.4106 98.788 12.0553 97.2746 12.3454L98.7558 14.4407C101.461 18.2444 103.843 20.9521 105.872 22.4994L105.743 23.0152C104.681 23.6599 103.554 23.9822 102.298 23.9822C100.817 24.0144 99.5608 23.6276 98.4338 22.854Z" fill="white"/>
<path d="M51.5284 16.0171L50.8844 15.05L48.8559 17.8545C46.7307 20.7556 44.6699 22.593 42.6735 23.27V23.7857L50.659 23.7535V23.2377C49.3067 21.8194 49.3389 19.8531 50.7879 17.371L51.5284 16.0171Z" fill="white"/>
<path d="M63.0585 17.95L57.8099 9.9557L60.3859 6.02304C62.2535 3.2186 64.3143 1.3812 66.5361 0.57533V0.0595703L58.5505 0.0918054V0.607565C59.1945 1.25226 59.5165 2.15484 59.5165 3.28307C59.5487 4.41129 59.2911 5.41057 58.8081 6.28092L57.2625 9.18206L55.1051 5.92633C53.6239 3.63765 53.4951 1.86473 54.7509 0.607565V0.0918054L42.9656 0.12404V0.639799C43.513 0.865444 44.0926 1.31673 44.7044 1.9292C45.3162 2.5739 45.7992 3.15413 46.2178 3.66989C46.6042 4.21788 47.1194 4.95928 47.7634 5.92633L55.5881 17.7888C56.3287 18.917 56.7795 19.9485 56.8761 20.9478C56.9727 21.9149 56.7151 22.6885 56.0711 23.2687V23.7845L68.1783 23.7523V23.2365C66.6327 22.5273 64.9261 20.7866 63.0585 17.95Z" fill="white"/>
</g>
<defs>
<clipPath id="clip0_308_512">
<rect width="105.333" height="24" fill="white" transform="translate(0.5)"/>
</clipPath>
</defs>
</svg>
