<svg width="19" height="19" viewBox="0 0 19 19" fill="none" xmlns="http://www.w3.org/2000/svg">
<rect width="19" height="19" rx="4" fill="#F2F2F2"/>
<path fill-rule="evenodd" clip-rule="evenodd" d="M9.5 3.95831C9.93722 3.95831 10.2917 4.31275 10.2917 4.74998V14.25C10.2917 14.6872 9.93722 15.0416 9.5 15.0416C9.06277 15.0416 8.70833 14.6872 8.70833 14.25V4.74998C8.70833 4.31275 9.06277 3.95831 9.5 3.95831Z" fill="#2D2D2D"/>
<path fill-rule="evenodd" clip-rule="evenodd" d="M3.95833 9.49998C3.95833 9.06275 4.31277 8.70831 4.75 8.70831H14.25C14.6872 8.70831 15.0417 9.06275 15.0417 9.49998C15.0417 9.93721 14.6872 10.2916 14.25 10.2916H4.75C4.31277 10.2916 3.95833 9.93721 3.95833 9.49998Z" fill="#2D2D2D"/>
</svg>
