<svg width="25" height="24" viewBox="0 0 25 24" fill="none" xmlns="http://www.w3.org/2000/svg">
<path d="M12.5 22C6.98 21.994 2.506 17.52 2.5 12V11.8C2.61 6.30502 7.135 1.92802 12.63 2.00002C18.127 2.07402 22.534 6.56902 22.498 12.065C22.462 17.562 17.997 22 12.5 22ZM12.484 20H12.5C14.621 19.9979 16.6544 19.1536 18.1531 17.6526C19.6518 16.1517 20.4931 14.1171 20.492 11.996C20.4909 9.87499 19.6476 7.84118 18.1474 6.34176C16.6473 4.84233 14.613 4.00003 12.492 4.00003C10.371 4.00003 8.33674 4.84233 6.83656 6.34176C5.33638 7.84118 4.49306 9.87499 4.492 11.996C4.49094 14.1171 5.33223 16.1517 6.8309 17.6526C8.32958 19.1536 10.363 19.9979 12.484 20ZM13.5 18H11.5V16H13.5V18ZM13.5 15H11.5C11.4845 14.3605 11.6404 13.7285 11.9517 13.1697C12.263 12.6108 12.7181 12.1455 13.27 11.822C13.93 11.316 14.5 10.88 14.5 10C14.5 9.46959 14.2893 8.96088 13.9142 8.58581C13.5391 8.21073 13.0304 8.00002 12.5 8.00002C11.9696 8.00002 11.4609 8.21073 11.0858 8.58581C10.7107 8.96088 10.5 9.46959 10.5 10H8.5V9.91002C8.51193 8.84915 8.94481 7.83648 9.70339 7.09477C10.462 6.35307 11.4841 5.94309 12.545 5.95502C13.6059 5.96696 14.6185 6.39983 15.3602 7.15841C16.102 7.917 16.5119 8.93916 16.5 10C16.4647 10.5321 16.3052 11.0485 16.0343 11.5079C15.7634 11.9672 15.3886 12.3567 14.94 12.645C14.5344 12.8997 14.1933 13.2448 13.9434 13.6534C13.6936 14.062 13.5418 14.5229 13.5 15Z" fill="#2D2D2D"/>
</svg>
