<svg width="20" height="19" viewBox="0 0 20 19" fill="none" xmlns="http://www.w3.org/2000/svg">
<path fill-rule="evenodd" clip-rule="evenodd" d="M9.38604 0.210648C9.74715 -0.0702159 10.2528 -0.0702159 10.6139 0.210648L19.6139 7.21065C20.0499 7.54972 20.1284 8.17799 19.7893 8.61394C19.4503 9.04989 18.822 9.12842 18.386 8.78935L9.99998 2.26686L1.61393 8.78935C1.17798 9.12842 0.549703 9.04989 0.210633 8.61394C-0.128437 8.17799 -0.0499029 7.54972 0.386044 7.21065L9.38604 0.210648Z" fill="#2D2D2D"/>
<path fill-rule="evenodd" clip-rule="evenodd" d="M3 5.5C3.55228 5.5 4 5.94772 4 6.5V17H8V14C8 13.4477 8.44772 13 9 13H11C11.5523 13 12 13.4477 12 14V17H16V7C16 6.44772 16.4477 6 17 6C17.5523 6 18 6.44772 18 7V18C18 18.5523 17.5523 19 17 19H3C2.44772 19 2 18.5523 2 18V6.5C2 5.94772 2.44772 5.5 3 5.5Z" fill="#2D2D2D"/>
</svg>
