<svg width="20" height="26" viewBox="0 0 20 26" fill="none" xmlns="http://www.w3.org/2000/svg">
<path fill-rule="evenodd" clip-rule="evenodd" d="M1.40531 1.90531C1.98496 1.32565 2.77115 1 3.59091 1H16.3182C17.1379 1 17.9241 1.32565 18.5038 1.90531C19.0834 2.48496 19.4091 3.27115 19.4091 4.09091V5.36364C19.4091 5.66488 19.1649 5.90909 18.8636 5.90909C18.5624 5.90909 18.3182 5.66488 18.3182 5.36364V4.09091C18.3182 3.56048 18.1075 3.05177 17.7324 2.6767C17.3573 2.30162 16.8486 2.09091 16.3182 2.09091H3.59091C3.06048 2.09091 2.55177 2.30162 2.1767 2.6767C1.80162 3.05177 1.59091 3.56048 1.59091 4.09091V21.9091C1.59091 22.4395 1.80162 22.9482 2.1767 23.3233C2.55177 23.6984 3.06048 23.9091 3.59091 23.9091H16.3182C16.8486 23.9091 17.3573 23.6984 17.7324 23.3233C18.1075 22.9482 18.3182 22.4395 18.3182 21.9091V20.6364C18.3182 20.3351 18.5624 20.0909 18.8636 20.0909C19.1649 20.0909 19.4091 20.3351 19.4091 20.6364V21.9091C19.4091 22.7289 19.0834 23.515 18.5038 24.0947C17.9241 24.6744 17.1379 25 16.3182 25H3.59091C2.77115 25 1.98496 24.6744 1.40531 24.0947C0.825648 23.515 0.5 22.7289 0.5 21.9091V4.09091C0.5 3.27115 0.825648 2.48496 1.40531 1.90531ZM14.6598 8.79612C14.8728 8.58311 15.2181 8.58311 15.4311 8.79612L19.2493 12.6143C19.2996 12.6645 19.3401 12.7245 19.3677 12.7912C19.391 12.8473 19.4051 12.9082 19.4084 12.9719C19.4089 12.9812 19.4091 12.9906 19.4091 13C19.4091 13.074 19.3944 13.1445 19.3677 13.2088C19.3411 13.2731 19.3016 13.3334 19.2493 13.3857L15.4311 17.2039C15.2181 17.4169 14.8728 17.4169 14.6598 17.2039C14.4467 16.9909 14.4467 16.6455 14.6598 16.4325L17.5468 13.5455H9.95455C9.6533 13.5455 9.40909 13.3012 9.40909 13C9.40909 12.6988 9.6533 12.4545 9.95455 12.4545H17.5468L14.6598 9.56751C14.4467 9.3545 14.4467 9.00914 14.6598 8.79612Z" fill="#2D2D2D" stroke="#2D2D2D" stroke-width="0.4" stroke-linecap="round" stroke-linejoin="round"/>
</svg>
