<svg width="106" height="24" viewBox="0 0 106 24" fill="none" xmlns="http://www.w3.org/2000/svg">
<g clip-path="url(#clip0_1691_22)">
<g clip-path="url(#clip1_1691_22)">
<path d="M19.3558 15.8107L19.388 23.9017L0.583225 23.9339V23.4182C1.61363 22.7412 2.12883 21.3551 2.12883 19.2598L2.09663 4.91529C2.09663 2.82002 1.58143 1.43391 0.551025 0.756978V0.241219L9.79244 0.208984V0.724743C8.76203 1.46615 8.24683 2.85225 8.24683 4.88305L8.27903 19.2598C8.27903 20.517 8.53663 21.3874 9.05184 21.9031C9.56704 22.4189 10.4042 22.6768 11.5634 22.6768H11.66C13.4954 22.6768 15.0088 22.0321 16.2324 20.7749C17.456 19.5177 18.3254 17.8415 18.8406 15.7785L19.3558 15.8107Z" fill="white"/>
<path d="M40.5742 17.5126V23.8306L22.51 23.8629V23.3471C23.5404 22.6702 24.0556 21.2841 24.0556 19.1888L24.0234 4.84424C24.0234 2.74897 23.5082 1.36287 22.4778 0.685934V0.170175L39.7048 0.137939V6.45599H39.1896C38.5134 4.94095 37.5796 3.68379 36.3882 2.74897C35.1646 1.81416 33.78 1.33063 32.1378 1.33063H30.1736L30.2058 11.3235L31.7514 11.1945C32.7818 11.0978 33.619 10.7432 34.2308 10.1308C34.8748 9.51831 35.4222 8.6802 35.9374 7.64868H36.4526L36.4848 15.9008H35.9696C35.4222 14.9016 34.8426 14.0957 34.2308 13.451C33.619 12.8385 32.7818 12.4839 31.7514 12.3872L30.2058 12.2583L30.238 19.221C30.238 20.446 30.4634 21.3163 30.9142 21.8643C31.365 22.4123 32.0734 22.6702 33.0394 22.6702H33.1038C34.6816 22.6702 36.0984 22.1867 37.2898 21.2196C38.4812 20.2526 39.415 19.0276 40.059 17.5126H40.5742Z" fill="white"/>
<path d="M78.1408 19.0562C78.1408 21.087 78.656 22.4409 79.6864 23.2145V23.7303L70.445 23.7625V23.2468C71.4754 22.5698 71.9906 21.1837 71.9906 19.0885L71.9584 4.7439C71.9584 2.64863 71.4432 1.26253 70.4128 0.585592V0.0698327L79.6542 0.0375977V0.553357C78.6238 1.29476 78.1086 2.68086 78.1086 4.71167L78.1408 19.0562Z" fill="white"/>
<path d="M98.4338 22.8541C97.3068 22.0805 96.1476 20.8878 94.8918 19.1793C94.602 18.7925 94.3122 18.3734 94.0224 17.8899C93.7326 17.4064 93.4428 16.9873 93.2496 16.6328C93.0242 16.2782 92.7344 15.7302 92.348 14.9888C91.9616 14.2474 91.6396 13.6994 91.4464 13.3448V12.8613C94.5698 11.9909 96.1154 9.79894 96.1154 6.3498C96.1154 2.90066 94.6342 1.19221 91.6718 1.19221H90.8989L90.9312 19.0181C90.9312 21.0489 91.4464 22.435 92.4768 23.1764V23.6922L83.2353 23.7244V23.2087C84.2657 22.564 84.7809 21.1779 84.7809 19.0504L84.7487 4.70582C84.7487 2.61054 84.2335 1.22444 83.2031 0.547506V0.0317468L92.9598 -0.000488281C99.4642 -0.000488281 102.749 2.12702 102.749 6.4465C102.749 8.18719 102.201 9.50883 101.139 10.4759C100.076 11.4107 98.788 12.0554 97.2746 12.3455L98.7558 14.4408C101.461 18.2445 103.843 20.9522 105.872 22.4995L105.743 23.0153C104.681 23.66 103.554 23.9823 102.298 23.9823C100.817 24.0146 99.5608 23.6277 98.4338 22.8541Z" fill="white"/>
<path d="M51.5284 16.0171L50.8844 15.05L48.8559 17.8545C46.7307 20.7556 44.6699 22.593 42.6735 23.27V23.7857L50.659 23.7535V23.2377C49.3067 21.8194 49.3389 19.8531 50.7879 17.371L51.5284 16.0171Z" fill="white"/>
<path d="M63.0585 17.95L57.8099 9.9557L60.3859 6.02304C62.2535 3.2186 64.3143 1.3812 66.5361 0.57533V0.0595703L58.5505 0.0918054V0.607565C59.1945 1.25226 59.5165 2.15484 59.5165 3.28307C59.5487 4.41129 59.2911 5.41057 58.8081 6.28092L57.2625 9.18206L55.1051 5.92633C53.6239 3.63765 53.4951 1.86473 54.7509 0.607565V0.0918054L42.9656 0.12404V0.639799C43.513 0.865444 44.0926 1.31673 44.7044 1.9292C45.3162 2.5739 45.7992 3.15413 46.2178 3.66989C46.6042 4.21788 47.1194 4.95928 47.7634 5.92633L55.5881 17.7888C56.3287 18.917 56.7795 19.9485 56.8761 20.9478C56.9727 21.9149 56.7151 22.6885 56.0711 23.2687V23.7845L68.1783 23.7523V23.2365C66.6327 22.5273 64.9261 20.7866 63.0585 17.95Z" fill="white"/>
</g>
</g>
<defs>
<clipPath id="clip0_1691_22">
<rect width="105.333" height="24" fill="white" transform="translate(0.5)"/>
</clipPath>
<clipPath id="clip1_1691_22">
<rect width="105.333" height="24" fill="white" transform="translate(0.5)"/>
</clipPath>
</defs>
</svg>
