<svg width="22" height="27" viewBox="0 0 22 27" fill="none" xmlns="http://www.w3.org/2000/svg">
<path d="M10.699 26.3008C7.74111 26.3008 6.32268 23.8233 5.92615 22.9808C5.12436 22.9986 2.85836 22.9212 1.45187 21.6207C0.687964 20.9143 0.300781 19.9667 0.300781 18.8046C0.300781 14.9779 3.33031 13.2156 4.16164 12.8043L6.44695 0.300781L7.23791 0.445342L4.87522 13.3714L4.66938 13.454C4.52445 13.5128 1.10467 14.9444 1.10467 18.8046C1.10467 19.7325 1.40462 20.4808 1.99579 21.0286C3.43108 22.3582 6.12608 22.1688 6.15352 22.1664L6.4579 22.1431L6.56247 22.4301C6.60824 22.5547 7.72278 25.4968 10.699 25.4968C13.688 25.4968 14.8244 22.4606 14.8356 22.4301L14.9399 22.1426L15.2449 22.1664C15.2717 22.1689 17.9674 22.3581 19.4023 21.0286C19.9936 20.4808 20.2934 19.7325 20.2934 18.8046C20.2934 14.9292 16.7644 13.4682 16.7288 13.454L16.521 13.3707L14.2612 0.442143L15.053 0.303732L17.2384 12.8052C18.0721 13.2181 21.0974 14.9805 21.0974 18.8046C21.0974 19.9667 20.7101 20.9143 19.9463 21.6207C18.5398 22.9212 16.2742 22.9989 15.4719 22.9808C15.0753 23.8233 13.657 26.3008 10.699 26.3008Z" fill="#2D2D2D"/>
<path fill-rule="evenodd" clip-rule="evenodd" d="M1.45108 21.6199C0.687182 20.9136 0.3 19.966 0.3 18.8039C0.3 14.9772 3.32953 13.2149 4.16086 12.8036L6.44617 0.300052L7.23713 0.444613L4.87444 13.3707L4.6686 13.4532C4.52367 13.512 1.10389 14.9436 1.10389 18.8039C1.10389 19.7318 1.40384 20.48 1.99501 21.0279C3.43029 22.3575 6.1253 22.168 6.15274 22.1657L6.45712 22.1423L6.56169 22.4294C6.60746 22.554 7.722 25.496 10.6983 25.496C13.6872 25.496 14.8236 22.4599 14.8348 22.4294L14.9391 22.1418L15.2441 22.1657C15.271 22.1682 17.9666 22.3574 19.4015 21.0279C19.9928 20.48 20.2926 19.7318 20.2926 18.8039C20.2926 14.9285 16.7636 13.4675 16.728 13.4532L16.5202 13.3699L14.2604 0.441414L15.0522 0.303003L17.2376 12.8045C18.0713 13.2174 21.0966 14.9798 21.0966 18.8039C21.0966 19.966 20.7093 20.9136 19.9455 21.6199C18.539 22.9205 16.2734 22.9981 15.4711 22.98C15.0745 23.8226 13.6562 26.3001 10.6983 26.3001C7.74033 26.3001 6.3219 23.8226 5.92537 22.98C5.12358 22.9979 2.85758 22.9205 1.45108 21.6199ZM5.73928 23.282C5.297 23.2817 4.60482 23.2483 3.85242 23.0878C2.98219 22.9022 2.00559 22.5413 1.24741 21.8402C0.414537 21.0701 0 20.0388 0 18.8039C0 14.9833 2.88326 13.1345 3.89239 12.6039L6.15106 0.246114C6.18085 0.0831295 6.33712 -0.0248473 6.5001 0.00494066L7.29107 0.149501C7.36934 0.163806 7.43872 0.208618 7.48395 0.274078C7.52918 0.339539 7.54655 0.420286 7.53224 0.498555L5.16955 13.4246C5.15102 13.526 5.08176 13.6107 4.98611 13.6491L4.7814 13.7312C4.78124 13.7313 4.78157 13.7311 4.7814 13.7312C4.72284 13.755 3.8729 14.1103 3.04089 14.9182C2.21145 15.7237 1.40389 16.9731 1.40389 18.8039C1.40389 19.662 1.67845 20.3255 2.19888 20.8078C2.84857 21.4097 3.80649 21.6834 4.64294 21.7991C5.4623 21.9125 6.11423 21.8677 6.12708 21.8668L6.12976 21.8666L6.43414 21.8432C6.56831 21.8329 6.69293 21.9132 6.73899 22.0396L6.8433 22.3259C6.84336 22.3261 6.84324 22.3258 6.8433 22.3259C6.86188 22.3764 7.13693 23.1026 7.75693 23.812C8.37527 24.5196 9.32181 25.196 10.6983 25.196C12.0783 25.196 13.0335 24.4987 13.6562 23.778C14.2768 23.0597 14.5491 22.3368 14.5531 22.3261C14.5531 22.3261 14.5531 22.3261 14.5531 22.3261L14.6571 22.0395C14.7031 21.9127 14.8281 21.8322 14.9626 21.8427L15.2716 21.8669C15.2979 21.8687 15.9442 21.9112 16.7537 21.7991C17.5902 21.6833 18.5481 21.4096 19.1976 20.8078C19.7181 20.3255 19.9926 19.6621 19.9926 18.8039C19.9926 16.9681 19.16 15.7076 18.3159 14.897C17.4744 14.089 16.629 13.7369 16.6164 13.7317L16.4086 13.6484C16.3122 13.6097 16.2426 13.5239 16.2247 13.4216L13.9649 0.493069C13.9363 0.329859 14.0455 0.174424 14.2087 0.145895L15.0006 0.00748423C15.1638 -0.0210446 15.3192 0.0881344 15.3477 0.251343L17.5074 12.6055C18.519 13.1381 21.3966 14.987 21.3966 18.8039C21.3966 20.0388 20.982 21.0701 20.1492 21.8402C19.3911 22.5413 18.4146 22.9023 17.5443 23.0879C16.7919 23.2484 16.0997 23.2819 15.6572 23.282C15.1526 24.2737 13.6567 26.6001 10.6983 26.6001C7.73981 26.6001 6.24374 24.2736 5.73928 23.282Z" fill="#2D2D2D"/>
</svg>
