<svg width="18" height="18" viewBox="0 0 18 18" fill="none" xmlns="http://www.w3.org/2000/svg">
<path fill-rule="evenodd" clip-rule="evenodd" d="M14.5184 2.0576C14.3314 2.0576 14.1463 2.09443 13.9735 2.16599C13.8007 2.23756 13.6437 2.34245 13.5115 2.47467L3.14396 12.8422L2.38878 15.6112L5.15777 14.856L15.5253 4.48849C15.6576 4.35626 15.7624 4.19928 15.834 4.02651C15.9056 3.85375 15.9424 3.66858 15.9424 3.48158C15.9424 3.29458 15.9056 3.10941 15.834 2.93665C15.7624 2.76388 15.6576 2.6069 15.5253 2.47467C15.3931 2.34245 15.2361 2.23756 15.0634 2.16599C14.8906 2.09443 14.7054 2.0576 14.5184 2.0576ZM13.3774 0.726959C13.7392 0.577121 14.1269 0.5 14.5184 0.5C14.91 0.5 15.2977 0.577121 15.6594 0.726959C16.0212 0.876797 16.3499 1.09642 16.6267 1.37328C16.9036 1.65015 17.1232 1.97884 17.273 2.34058C17.4229 2.70232 17.5 3.09004 17.5 3.48158C17.5 3.87312 17.4229 4.26084 17.273 4.62258C17.1232 4.98432 16.9036 5.31301 16.6267 5.58988L6.11291 16.1037C6.01708 16.1995 5.89789 16.2687 5.76714 16.3043L1.48373 17.4725C1.2141 17.5461 0.925744 17.4695 0.728123 17.2719C0.530503 17.0743 0.453925 16.7859 0.52746 16.5163L1.69566 12.2329C1.73132 12.1021 1.80049 11.9829 1.89632 11.8871L12.4101 1.37328C12.687 1.09642 13.0157 0.876797 13.3774 0.726959Z" fill="#2D2D2D"/>
</svg>
