<svg width="17" height="17" viewBox="0 0 17 17" fill="none" xmlns="http://www.w3.org/2000/svg">
<path d="M9 1.25C9 1.05109 8.92098 0.860322 8.78033 0.71967C8.63968 0.579018 8.44891 0.5 8.25 0.5C8.05109 0.5 7.86032 0.579018 7.71967 0.71967C7.57902 0.860322 7.5 1.05109 7.5 1.25V8H0.75C0.551088 8 0.360322 8.07902 0.21967 8.21967C0.0790178 8.36032 0 8.55109 0 8.75C0 8.94891 0.0790178 9.13968 0.21967 9.28033C0.360322 9.42098 0.551088 9.5 0.75 9.5H7.5V16.25C7.5 16.4489 7.57902 16.6397 7.71967 16.7803C7.86032 16.921 8.05109 17 8.25 17C8.44891 17 8.63968 16.921 8.78033 16.7803C8.92098 16.6397 9 16.4489 9 16.25V9.5H15.75C15.9489 9.5 16.1397 9.42098 16.2803 9.28033C16.421 9.13968 16.5 8.94891 16.5 8.75C16.5 8.55109 16.421 8.36032 16.2803 8.21967C16.1397 8.07902 15.9489 8 15.75 8H9V1.25Z" fill="#2D2D2D"/>
</svg>
