<svg width="25" height="24" viewBox="0 0 25 24" fill="none" xmlns="http://www.w3.org/2000/svg">
<path d="M20.75 12.5701V11.4226L22.19 10.1626C22.4554 9.9286 22.6296 9.60833 22.6818 9.25836C22.7339 8.90839 22.6607 8.55125 22.475 8.25006L20.705 5.25006C20.5735 5.02226 20.3844 4.83305 20.1566 4.70141C19.9289 4.56977 19.6705 4.50033 19.4075 4.50006C19.2445 4.49881 19.0824 4.52414 18.9275 4.57506L17.105 5.19006C16.7904 4.98097 16.4621 4.79305 16.1225 4.62756L15.74 2.73756C15.6714 2.39226 15.4836 2.08209 15.2093 1.86134C14.9351 1.64058 14.592 1.52332 14.24 1.53006H10.73C10.378 1.52332 10.0349 1.64058 9.76067 1.86134C9.48644 2.08209 9.29859 2.39226 9.23001 2.73756L8.84751 4.62756C8.50546 4.79301 8.17473 4.98092 7.85751 5.19006L6.07251 4.54506C5.91598 4.50428 5.75389 4.48908 5.59251 4.50006C5.32946 4.50033 5.07111 4.56977 4.84338 4.70141C4.61564 4.83305 4.42653 5.02226 4.29501 5.25006L2.52501 8.25006C2.34995 8.5508 2.2849 8.90305 2.34099 9.24648C2.39709 9.58991 2.57085 9.90316 2.83251 10.1326L4.25001 11.4301V12.5776L2.83251 13.8376C2.56346 14.0686 2.38495 14.3874 2.32866 14.7375C2.27236 15.0876 2.34193 15.4464 2.52501 15.7501L4.29501 18.7501C4.42653 18.9779 4.61564 19.1671 4.84338 19.2987C5.07111 19.4304 5.32946 19.4998 5.59251 19.5001C5.75552 19.5013 5.91764 19.476 6.07251 19.4251L7.89501 18.8101C8.20966 19.0192 8.53789 19.2071 8.87751 19.3726L9.26001 21.2626C9.32859 21.6079 9.51644 21.918 9.79067 22.1388C10.0649 22.3595 10.408 22.4768 10.76 22.4701H14.3C14.652 22.4768 14.9951 22.3595 15.2693 22.1388C15.5436 21.918 15.7314 21.6079 15.8 21.2626L16.1825 19.3726C16.5246 19.2071 16.8553 19.0192 17.1725 18.8101L18.9875 19.4251C19.1424 19.476 19.3045 19.5013 19.4675 19.5001C19.7306 19.4998 19.9889 19.4304 20.2166 19.2987C20.4444 19.1671 20.6335 18.9779 20.765 18.7501L22.475 15.7501C22.6501 15.4493 22.7151 15.0971 22.659 14.7536C22.6029 14.4102 22.4292 14.097 22.1675 13.8676L20.75 12.5701ZM19.4075 18.0001L16.835 17.1301C16.2328 17.6401 15.5446 18.0389 14.8025 18.3076L14.27 21.0001H10.73L10.1975 18.3376C9.46132 18.0612 8.77679 17.6632 8.17251 17.1601L5.59251 18.0001L3.82251 15.0001L5.86251 13.2001C5.72383 12.4237 5.72383 11.6289 5.86251 10.8526L3.82251 9.00006L5.59251 6.00006L8.16501 6.87006C8.76721 6.35998 9.45546 5.96125 10.1975 5.69256L10.73 3.00006H14.27L14.8025 5.66256C15.5387 5.93888 16.2232 6.33692 16.8275 6.84006L19.4075 6.00006L21.1775 9.00006L19.1375 10.8001C19.2762 11.5764 19.2762 12.3712 19.1375 13.1476L21.1775 15.0001L19.4075 18.0001Z" fill="#2D2D2D"/>
<path d="M12.5 16.5C11.61 16.5 10.74 16.2361 9.99994 15.7416C9.25991 15.2471 8.68314 14.5443 8.34254 13.7221C8.00195 12.8998 7.91283 11.995 8.08647 11.1221C8.2601 10.2492 8.68869 9.44736 9.31802 8.81802C9.94736 8.18869 10.7492 7.7601 11.6221 7.58647C12.495 7.41283 13.3998 7.50195 14.2221 7.84254C15.0443 8.18314 15.7471 8.75991 16.2416 9.49994C16.7361 10.24 17 11.11 17 12C17.006 12.5926 16.8937 13.1805 16.6697 13.7292C16.4457 14.2779 16.1145 14.7763 15.6954 15.1954C15.2763 15.6145 14.7779 15.9457 14.2292 16.1697C13.6805 16.3937 13.0926 16.506 12.5 16.5V16.5ZM12.5 9C12.1035 8.99077 11.7093 9.06205 11.3411 9.20954C10.973 9.35704 10.6386 9.57768 10.3581 9.85812C10.0777 10.1386 9.85704 10.473 9.70954 10.8411C9.56205 11.2093 9.49077 11.6035 9.5 12C9.49077 12.3965 9.56205 12.7907 9.70954 13.1589C9.85704 13.527 10.0777 13.8615 10.3581 14.1419C10.6386 14.4223 10.973 14.643 11.3411 14.7905C11.7093 14.938 12.1035 15.0092 12.5 15C12.8965 15.0092 13.2907 14.938 13.6589 14.7905C14.027 14.643 14.3615 14.4223 14.6419 14.1419C14.9223 13.8615 15.143 13.527 15.2905 13.1589C15.438 12.7907 15.5092 12.3965 15.5 12C15.5092 11.6035 15.438 11.2093 15.2905 10.8411C15.143 10.473 14.9223 10.1386 14.6419 9.85812C14.3615 9.57768 14.027 9.35704 13.6589 9.20954C13.2907 9.06205 12.8965 8.99077 12.5 9Z" fill="#2D2D2D"/>
</svg>
