<svg width="16" height="22" viewBox="0 0 16 22" fill="none" xmlns="http://www.w3.org/2000/svg">
<path fill-rule="evenodd" clip-rule="evenodd" d="M0.391602 0.600049C0.391602 0.434363 0.525916 0.300049 0.691602 0.300049H15.3328C15.4984 0.300049 15.6328 0.434363 15.6328 0.600049V14.6122C15.6328 18.6439 12.2012 21.9 8.01224 21.9C3.8232 21.9 0.391602 18.6439 0.391602 14.6122V0.600049ZM1.75528 1.62901V14.6122C1.75528 17.8846 4.54906 20.5709 8.01224 20.5709C11.4753 20.5709 14.269 17.8846 14.269 14.6122V1.62901H1.75528ZM1.45528 14.6122C1.45528 18.0633 4.39669 20.8709 8.01224 20.8709C11.6277 20.8709 14.569 18.0633 14.569 14.6122V1.32901H1.45528V14.6122ZM0.691602 14.6122C0.691602 18.4652 3.97558 21.6 8.01224 21.6C12.0488 21.6 15.3328 18.4652 15.3328 14.6122V0.600049H0.691602V14.6122Z" fill="#2D2D2D"/>
</svg>
