<svg width="12" height="13" viewBox="0 0 12 13" fill="none" xmlns="http://www.w3.org/2000/svg">
<path d="M3.3 0.600037C1.47891 0.600037 0 2.07894 0 3.90004C0 5.72113 1.47891 7.20004 3.3 7.20004C3.89297 7.20004 4.46016 7.02894 4.95 6.75004L6.6 8.62504V11.4H4.2V12.6H10.2V11.4H7.8V8.62504L11.85 4.05004L12 3.88129V3.00004H6.45C6.08672 1.60785 4.79063 0.600037 3.3 0.600037ZM3.3 1.80004C4.13438 1.80004 4.85391 2.30394 5.175 3.00004H2.4V3.88129L2.55 4.05004L4.10625 5.81254C3.84141 5.92972 3.5625 6.00004 3.3 6.00004C2.12109 6.00004 1.2 5.07894 1.2 3.90004C1.2 2.72113 2.12109 1.80004 3.3 1.80004ZM4.275 4.20004H10.125L9.6 4.80004H6L7.8375 6.78754L7.2 7.50004L4.275 4.20004Z" fill="#2D2D2D"/>
</svg>
