<svg width="24" height="24" viewBox="0 0 24 24" fill="none" xmlns="http://www.w3.org/2000/svg">
<g clip-path="url(#clip0_1562_878)">
<path d="M13 5.25C13 5.05109 12.921 4.86032 12.7803 4.71967C12.6397 4.57902 12.4489 4.5 12.25 4.5C12.0511 4.5 11.8603 4.57902 11.7197 4.71967C11.579 4.86032 11.5 5.05109 11.5 5.25V12H4.75C4.55109 12 4.36032 12.079 4.21967 12.2197C4.07902 12.3603 4 12.5511 4 12.75C4 12.9489 4.07902 13.1397 4.21967 13.2803C4.36032 13.421 4.55109 13.5 4.75 13.5H11.5V20.25C11.5 20.4489 11.579 20.6397 11.7197 20.7803C11.8603 20.921 12.0511 21 12.25 21C12.4489 21 12.6397 20.921 12.7803 20.7803C12.921 20.6397 13 20.4489 13 20.25V13.5H19.75C19.9489 13.5 20.1397 13.421 20.2803 13.2803C20.421 13.1397 20.5 12.9489 20.5 12.75C20.5 12.5511 20.421 12.3603 20.2803 12.2197C20.1397 12.079 19.9489 12 19.75 12H13V5.25Z" fill="#2D2D2D"/>
</g>
<defs>
<clipPath id="clip0_1562_878">
<rect width="24" height="24" fill="white"/>
</clipPath>
</defs>
</svg>
